<svg xmlns="http://www.w3.org/2000/svg" viewBox="0 0 1815 519" width="1815" height="519">
	<defs>
		<clipPath clipPathUnits="userSpaceOnUse" id="cp1">
			<path d="M0 0L1815 0L1815 519L0 519Z" />
		</clipPath>
	</defs>
	<style>
		tspan { white-space:pre }
		.shp0 { fill: #4f5655 } 
		.shp1 { fill: #f23a36 } 
	</style>
	<g id="Page 1" clip-path="url(#cp1)">
		<path id="Path 1" fill-rule="evenodd" class="shp0" d="M587.3 291.57C582.71 294.66 577.38 296.35 572.31 296.35C570.44 296.35 568.67 296.1 567 295.66C562.16 303.25 556.04 309.36 548.93 313.31L548.44 313.59L513.9 313.59L513.4 313.31C495.06 303.11 483.21 278.66 483.21 251.02L483.21 248.83L579.12 248.83L579.12 251.02C579.12 252.62 579.07 254.2 578.99 255.77C579.79 255.69 580.59 255.64 581.38 255.64C587.78 255.64 593.23 258.29 596.33 262.91C602.1 271.5 598.05 284.36 587.3 291.57ZM574.72 253.21L487.61 253.21C488.22 277.77 499.07 300.01 515.04 309.21L547.29 309.21C563.26 300.01 574.11 277.77 574.72 253.21ZM592.7 265.35C590.42 261.96 586.3 260.01 581.38 260.01C580.48 260.01 579.57 260.09 578.66 260.22C577.53 271.86 574.27 282.66 569.33 291.72C570.28 291.89 571.27 291.98 572.31 291.98C576.52 291.98 580.98 290.55 584.87 287.94C593.61 282.07 597.12 271.94 592.7 265.35ZM491.39 321.04L570.94 321.04L570.94 325.41L491.39 325.41L491.39 321.04ZM514.84 239.59L510.47 239.59L510.47 221.43L514.84 221.43L514.84 239.59ZM533.35 239.59L528.98 239.59L528.98 209.16L533.35 209.16L533.35 239.59ZM551.86 239.59L547.49 239.59L547.49 219.03L551.86 219.03L551.86 239.59ZM224.63 297.06L132.1 297.06L132.1 294.6C132.1 269.91 151.54 249.68 175.91 248.4L175.91 239.86L165.12 239.86L165.12 234.93L191.61 234.93L191.61 239.86L180.83 239.86L180.83 248.4C205.2 249.69 224.63 269.91 224.63 294.6L224.63 297.06ZM219.63 292.14C218.35 270.48 200.33 253.26 178.37 253.26C156.4 253.26 138.38 270.48 137.1 292.14L219.63 292.14ZM194.78 222.16L191.3 225.64C184.17 218.51 172.56 218.51 165.43 225.64L161.95 222.16C171 213.11 185.73 213.11 194.78 222.16ZM152.33 213.35L148.85 209.87C156.74 201.98 167.22 197.63 178.37 197.63C189.51 197.63 199.99 201.98 207.88 209.87L204.4 213.35C197.44 206.39 188.19 202.56 178.37 202.56C168.54 202.56 159.29 206.39 152.33 213.35Z" />
		<path id="Path 2" fill-rule="evenodd" class="shp0" d="M236.24 315.42L236.24 325.41L120.49 325.41L120.49 315.42L129.22 303.49L227.51 303.49L236.24 315.42ZM231.31 317.03L225.01 308.41L131.72 308.41L125.42 317.03L125.42 320.48L231.31 320.48L231.31 317.03ZM985.51 273.26L985.51 318.5C985.51 322.31 982.41 325.41 978.6 325.41L903.71 325.41C899.9 325.41 896.8 322.31 896.8 318.5L896.8 310.42L871.78 285.4C870.48 284.1 869.76 282.36 869.76 280.51C869.76 278.66 870.48 276.92 871.78 275.62L924.73 222.67C926.03 221.37 927.76 220.66 929.61 220.66C931.46 220.66 933.2 221.37 934.5 222.67L966.49 254.67C969.18 257.36 969.18 261.74 966.49 264.44L964.58 266.35L978.6 266.35C982.41 266.35 985.51 269.45 985.51 273.26ZM896.8 304.71L896.8 273.26C896.8 269.45 899.9 266.35 903.71 266.35L958.87 266.35L963.63 261.58C964.75 260.46 964.75 258.64 963.63 257.52L931.64 225.53C931.1 224.99 930.38 224.69 929.61 224.69C928.84 224.69 928.12 224.99 927.58 225.53L874.64 278.48C874.09 279.02 873.8 279.74 873.8 280.51C873.8 281.28 874.09 282 874.63 282.54L896.8 304.71ZM900.84 296.92L981.47 296.92L981.47 285.47L900.84 285.47L900.84 296.92ZM978.6 270.39L903.71 270.39C902.13 270.39 900.84 271.67 900.84 273.26L900.84 281.43L981.47 281.43L981.47 273.26C981.47 271.67 980.18 270.39 978.6 270.39ZM981.47 318.5L981.47 300.96L900.84 300.96L900.84 318.5C900.84 320.08 902.13 321.37 903.71 321.37L978.6 321.37C980.18 321.37 981.47 320.08 981.47 318.5ZM908.38 311.48L917.17 311.48L917.17 315.52L908.38 315.52L908.38 311.48ZM921.85 311.48L930.64 311.48L930.64 315.52L921.85 315.52L921.85 311.48ZM1626.35 265.7C1634.16 273.52 1634.16 286.23 1626.35 294.04C1622.56 297.82 1617.53 299.91 1612.18 299.91C1606.83 299.91 1601.8 297.82 1598.01 294.04C1590.2 286.23 1590.2 273.52 1598.01 265.7C1601.8 261.92 1606.83 259.84 1612.18 259.84C1617.53 259.84 1622.56 261.92 1626.35 265.7ZM1623.19 268.86C1620.25 265.92 1616.34 264.3 1612.18 264.3C1608.02 264.3 1604.11 265.92 1601.16 268.86C1595.1 274.93 1595.09 284.81 1601.16 290.88C1604.11 293.83 1608.02 295.45 1612.18 295.45C1616.34 295.45 1620.25 293.83 1623.19 290.88C1629.26 284.81 1629.26 274.93 1623.19 268.86Z" />
		<path id="Path 3" fill-rule="evenodd" class="shp0" d="M1682.39 241.8C1682.39 250.39 1679.05 258.46 1672.98 264.53L1614.98 322.53C1613.12 324.39 1610.64 325.41 1608 325.41C1605.36 325.41 1602.89 324.39 1601.03 322.53L1569.52 291.02C1565.68 287.17 1565.68 280.92 1569.52 277.07L1609.52 237.07C1611.38 235.22 1613.86 234.2 1616.49 234.2C1619.13 234.2 1621.61 235.22 1623.47 237.07L1639.22 252.83C1641.92 255.53 1645.51 257.02 1649.33 257.02C1653.15 257.02 1656.74 255.53 1659.44 252.83C1662.15 250.13 1663.63 246.54 1663.63 242.72C1663.64 238.9 1662.15 235.31 1659.45 232.6C1656.75 229.9 1653.15 228.42 1649.34 228.42C1645.51 228.42 1641.92 229.9 1639.22 232.61L1637.65 234.18L1625.03 221.57L1627.52 219.08C1633.59 213.01 1641.66 209.66 1650.25 209.66C1658.84 209.66 1666.91 213.01 1672.98 219.08C1679.04 225.14 1682.39 233.21 1682.39 241.8ZM1677.93 241.8C1677.93 234.41 1675.05 227.46 1669.82 222.23C1664.59 217 1657.64 214.12 1650.25 214.12C1643.17 214.12 1636.49 216.76 1631.35 221.58L1637.74 227.97C1641.03 225.36 1645.07 223.95 1649.34 223.95C1654.35 223.95 1659.06 225.91 1662.6 229.45C1666.15 232.99 1668.1 237.71 1668.1 242.72C1668.1 247.73 1666.14 252.44 1662.6 255.98C1659.05 259.53 1654.34 261.48 1649.33 261.48C1644.32 261.48 1639.61 259.53 1636.07 255.98L1620.31 240.23C1619.3 239.22 1617.94 238.66 1616.49 238.66C1615.05 238.66 1613.69 239.22 1612.68 240.23L1572.67 280.23C1570.57 282.34 1570.57 285.76 1572.67 287.87L1604.18 319.37C1606.21 321.4 1609.8 321.4 1611.82 319.37L1669.82 261.37C1675.05 256.15 1677.93 249.2 1677.93 241.8ZM1317.54 309.08L1317.54 325.41L1224.94 325.41L1224.94 309.08C1224.94 293.86 1232.98 285.81 1248.2 285.81L1250.77 285.81L1250.77 275.53L1253.55 276.28C1256.45 277.07 1259.58 277.68 1262.84 278.07L1264.72 278.3L1264.77 280.2C1264.87 283.74 1267.71 286.52 1271.24 286.52C1274.78 286.52 1277.62 283.74 1277.71 280.2L1277.77 278.3L1279.65 278.07C1282.9 277.68 1286.03 277.07 1288.95 276.28L1291.73 275.53L1291.73 285.81L1294.29 285.81C1309.5 285.81 1317.54 293.86 1317.54 309.08ZM1313.14 309.08C1313.14 296.21 1307.15 290.22 1294.29 290.22L1287.32 290.22L1287.32 281.22C1285.57 281.61 1283.76 281.95 1281.91 282.21C1281.05 286.51 1277.71 289.82 1273.45 290.69L1273.45 299.04L1269.04 299.04L1269.04 290.69C1264.78 289.82 1261.44 286.51 1260.58 282.21C1258.73 281.95 1256.92 281.61 1255.17 281.22L1255.17 290.22L1248.2 290.22C1235.34 290.22 1229.35 296.21 1229.35 309.08L1229.35 321L1313.14 321L1313.14 309.08ZM1288.54 299.11C1288.54 301.17 1286.87 302.85 1284.8 302.85C1282.73 302.85 1281.05 301.17 1281.05 299.11C1281.05 297.04 1282.73 295.36 1284.8 295.36C1286.87 295.36 1288.54 297.04 1288.54 299.11ZM1288.54 313.31C1288.54 315.38 1286.87 317.06 1284.8 317.06C1282.73 317.06 1281.05 315.38 1281.05 313.31C1281.05 311.25 1282.73 309.57 1284.8 309.57C1286.87 309.57 1288.54 311.25 1288.54 313.31ZM1259.03 299.11C1259.03 301.17 1257.36 302.85 1255.29 302.85C1253.22 302.85 1251.54 301.17 1251.54 299.11C1251.54 297.04 1253.22 295.36 1255.29 295.36C1257.36 295.36 1259.03 297.04 1259.03 299.11ZM1259.03 313.31C1259.03 315.38 1257.36 317.06 1255.29 317.06C1253.22 317.06 1251.54 315.38 1251.54 313.31C1251.54 311.25 1253.22 309.57 1255.29 309.57C1257.36 309.57 1259.03 311.25 1259.03 313.31Z" />
		<path id="Path 4" fill-rule="evenodd" class="shp0" d="M1240.61 243.73C1240.61 243.11 1240.64 242.48 1240.69 241.82L1240.85 240.06L1240.86 240.04L1241.31 237.37C1241.56 236.16 1241.92 234.99 1242.31 233.84L1244.18 207.68L1245.31 207.13C1253.31 203.17 1262.28 201.08 1271.24 201.08C1280.2 201.08 1289.17 203.17 1297.17 207.12L1298.3 207.68L1300.16 233.75C1300.27 234.06 1300.39 234.37 1300.49 234.69L1301.03 236.66L1301.48 239C1301.73 240.59 1301.88 242.18 1301.88 243.73C1301.88 260.62 1288.13 274.36 1271.24 274.36C1254.35 274.36 1240.61 260.62 1240.61 243.73ZM1245.51 238.77C1247.78 239.39 1250.08 239.71 1252.39 239.71C1260.77 239.71 1268.72 235.62 1273.65 228.79L1274.76 227.25C1273.59 227.18 1272.41 227.14 1271.24 227.14C1263.24 227.14 1255.22 228.81 1247.88 231.96C1246.8 234.09 1245.97 236.36 1245.51 238.77ZM1294.65 231.98C1288.67 229.41 1282.23 227.83 1275.71 227.34L1276.93 228.45C1281.78 232.88 1288.05 235.32 1294.57 235.32C1295.04 235.32 1295.54 235.29 1296.04 235.25C1295.65 234.12 1295.19 233.03 1294.65 231.98ZM1247.19 227.45C1254.78 224.36 1263.03 222.74 1271.24 222.74C1279.46 222.74 1287.7 224.36 1295.3 227.45L1294.09 210.53C1286.98 207.23 1279.11 205.49 1271.24 205.49C1263.37 205.49 1255.5 207.23 1248.4 210.53L1247.19 227.45ZM1245.02 243.73C1245.02 258.19 1256.78 269.95 1271.24 269.95C1285.7 269.95 1297.47 258.19 1297.47 243.73C1297.47 242.38 1297.35 241 1297.12 239.6L1297.08 239.6C1296.21 239.67 1295.37 239.73 1294.57 239.73C1287.74 239.73 1281.14 237.44 1275.77 233.23C1269.97 240.09 1261.39 244.11 1252.39 244.11C1249.97 244.11 1247.56 243.81 1245.18 243.22L1245.03 243.2L1245.02 243.73ZM119.54 346.02C119.54 345.77 119.74 345.55 120.01 345.55L127.16 345.55C130.16 345.55 132.61 347.95 132.61 350.92C132.61 353.22 131.08 355.1 128.91 355.97L132.33 362.31C132.51 362.64 132.33 363.04 131.91 363.04L129.28 363.04C129.06 363.04 128.93 362.92 128.88 362.81L125.56 356.19L122.79 356.19L122.79 362.57C122.79 362.81 122.56 363.04 122.31 363.04L120.01 363.04C119.74 363.04 119.54 362.81 119.54 362.57L119.54 346.02ZM126.89 353.52C128.21 353.52 129.36 352.37 129.36 350.97C129.36 349.65 128.21 348.55 126.89 348.55L122.81 348.55L122.81 353.52L126.89 353.52Z" />
		<path id="Path 5" fill-rule="evenodd" class="shp0" d="M138.99 352.8C141.56 352.8 143.66 354.75 143.66 357.44L143.61 358.12C143.58 358.37 143.36 358.54 143.14 358.54L136.74 358.54C136.81 359.57 137.69 360.72 139.14 360.72C139.91 360.72 140.64 360.41 141.09 360.09C141.34 359.94 141.56 359.89 141.74 360.09L142.76 361.27C142.94 361.44 142.99 361.71 142.74 361.91C141.91 362.69 140.64 363.29 139.01 363.29C136.01 363.29 133.89 360.92 133.89 358.04C133.89 355.22 136.01 352.8 138.99 352.8ZM140.74 356.79C140.66 355.87 139.86 355.1 138.91 355.1C137.91 355.1 137.09 355.84 136.96 356.79L140.74 356.79ZM145.21 361.84L145.89 360.49C145.99 360.24 146.24 360.19 146.46 360.32C146.46 360.32 147.59 360.92 148.74 360.92C149.24 360.92 149.59 360.72 149.59 360.29C149.59 359.84 149.24 359.57 147.91 359.04C145.99 358.29 145.09 357.27 145.09 355.74C145.09 354.22 146.21 352.8 148.76 352.8C150.24 352.8 151.31 353.22 151.84 353.57C152.06 353.72 152.19 353.99 152.06 354.24L151.44 355.52C151.31 355.74 151.04 355.77 150.84 355.69C150.84 355.69 149.71 355.17 148.76 355.17C148.16 355.17 147.91 355.42 147.91 355.74C147.91 356.19 148.36 356.34 149.29 356.72C151.21 357.47 152.66 358.29 152.66 360.24C152.66 361.89 151.21 363.29 148.69 363.29C147.04 363.29 145.89 362.76 145.37 362.36C145.21 362.24 145.11 362.04 145.21 361.84ZM159.21 352.8C161.79 352.8 163.88 354.75 163.88 357.44L163.83 358.12C163.81 358.37 163.58 358.54 163.36 358.54L156.96 358.54C157.04 359.57 157.91 360.72 159.36 360.72C160.14 360.72 160.86 360.41 161.31 360.09C161.56 359.94 161.79 359.89 161.96 360.09L162.99 361.27C163.16 361.44 163.21 361.71 162.96 361.91C162.13 362.69 160.86 363.29 159.24 363.29C156.24 363.29 154.11 360.92 154.11 358.04C154.11 355.22 156.24 352.8 159.21 352.8ZM160.96 356.79C160.89 355.87 160.09 355.1 159.14 355.1C158.14 355.1 157.31 355.84 157.19 356.79L160.96 356.79ZM165.99 353.52C165.99 353.25 166.21 353.04 166.46 353.04L167.41 353.04C167.64 353.04 167.79 353.17 167.86 353.37L168.21 354.34C168.56 353.85 169.49 352.8 171.04 352.8C172.21 352.8 173.26 353.17 172.96 353.8L172.04 355.42C171.91 355.64 171.66 355.74 171.46 355.64C171.39 355.62 171.01 355.49 170.74 355.49C169.74 355.49 169.14 356.17 168.96 356.52L168.96 362.57C168.96 362.92 168.74 363.04 168.39 363.04L166.46 363.04C166.21 363.04 165.99 362.81 165.99 362.57L165.99 353.52ZM173.67 353.64C173.52 353.32 173.64 353.04 174.01 353.04L176.19 353.04C176.44 353.04 176.56 353.17 176.64 353.32L178.66 357.97L178.71 357.97L180.86 353.32C180.99 353.07 181.19 353.04 181.46 353.04L183.41 353.04C183.78 353.04 183.93 353.32 183.76 353.64L179.19 363.04C179.11 363.16 178.99 363.29 178.76 363.29L178.64 363.29C178.41 363.29 178.29 363.16 178.21 363.04L173.67 353.64ZM188.71 356.72C189.71 356.72 190.54 356.99 190.54 356.99C190.56 355.72 190.16 355.27 189.24 355.27C188.31 355.27 187.01 355.47 186.44 355.64C186.09 355.74 185.91 355.52 185.86 355.2L185.64 353.9C185.56 353.52 185.76 353.35 185.99 353.27C186.19 353.2 187.79 352.8 189.39 352.8C192.51 352.8 193.23 354.42 193.23 357.14L193.23 362.57C193.23 362.81 193.01 363.04 192.76 363.04L191.86 363.04C191.68 363.04 191.56 362.96 191.44 362.69L191.14 362.01C190.56 362.54 189.64 363.29 188.09 363.29C186.09 363.29 184.71 361.99 184.71 359.87C184.71 358.09 186.16 356.72 188.71 356.72ZM188.76 361.17C189.56 361.17 190.34 360.49 190.49 360.19L190.49 358.82C190.49 358.82 189.81 358.52 189.09 358.52C188.11 358.52 187.46 359.07 187.46 359.87C187.46 360.62 187.99 361.17 188.76 361.17ZM196.64 355.67L195.79 355.67C195.54 355.67 195.34 355.45 195.34 355.2L195.34 353.52C195.34 353.25 195.54 353.04 195.79 353.04L196.64 353.04L196.64 350.27C196.64 350.02 196.86 349.8 197.11 349.8L199.16 349.77C199.41 349.77 199.61 350 199.61 350.25L199.61 353.04L201.81 353.04C202.09 353.04 202.29 353.25 202.29 353.52L202.29 355.2C202.29 355.45 202.09 355.67 201.81 355.67L199.61 355.67L199.61 359.67C199.61 360.37 199.99 360.47 200.39 360.47C200.81 360.47 201.34 360.29 201.61 360.19C201.89 360.09 202.09 360.22 202.16 360.47L202.66 362.04C202.76 362.29 202.64 362.54 202.39 362.64C202.26 362.71 200.64 363.29 199.41 363.29C197.49 363.29 196.64 362.09 196.64 360.07L196.64 355.67ZM204.74 353.52C204.74 353.25 204.96 353.04 205.21 353.04L207.29 353.04C207.54 353.04 207.76 353.25 207.76 353.52L207.76 362.57C207.76 362.81 207.54 363.04 207.29 363.04L205.21 363.04C204.96 363.04 204.74 362.81 204.74 362.57L204.74 353.52ZM204.51 347.77C204.51 346.82 205.26 346.05 206.21 346.05C207.19 346.05 207.96 346.82 207.96 347.77C207.96 348.72 207.19 349.5 206.21 349.5C205.26 349.5 204.51 348.72 204.51 347.77ZM215.11 352.8C217.93 352.8 220.23 355.2 220.23 358.02C220.23 360.89 217.93 363.29 215.11 363.29C212.29 363.29 209.99 360.89 209.99 358.02C209.99 355.2 212.29 352.8 215.11 352.8ZM215.11 360.59C216.44 360.59 217.51 359.44 217.51 358.02C217.51 356.62 216.44 355.49 215.11 355.49C213.76 355.49 212.71 356.62 212.71 358.02C212.71 359.44 213.76 360.59 215.11 360.59ZM222.46 353.52C222.46 353.25 222.69 353.04 222.94 353.04L223.89 353.04C224.11 353.04 224.24 353.17 224.31 353.35L224.66 354.27C225.04 353.87 226.26 352.8 228.19 352.8C231.36 352.8 232.63 355.17 232.63 357.77L232.63 362.57C232.63 362.81 232.41 363.04 232.16 363.04L230.11 363.04C229.83 363.04 229.63 362.81 229.63 362.57L229.63 357.62C229.63 356.32 228.96 355.49 227.76 355.49C226.46 355.49 225.66 356.39 225.41 357.07L225.41 362.57C225.41 362.92 225.26 363.04 224.79 363.04L222.94 363.04C222.69 363.04 222.46 362.81 222.46 362.57L222.46 353.52ZM117.11 375.68C117.14 375.47 117.29 375.3 117.56 375.3L117.96 375.3C118.16 375.3 118.31 375.4 118.39 375.55L123.88 387.34L123.96 387.34L129.46 375.55C129.53 375.4 129.66 375.3 129.88 375.3L130.28 375.3C130.56 375.3 130.71 375.47 130.73 375.68L133.68 392.47C133.75 392.81 133.55 393.04 133.23 393.04L130.96 393.04C130.73 393.04 130.53 392.84 130.48 392.67L129.01 383.2L128.93 383.2L124.56 393.02C124.51 393.16 124.36 393.29 124.13 393.29L123.68 393.29C123.46 393.29 123.33 393.16 123.26 393.02L118.84 383.2L118.76 383.2L117.31 392.67C117.29 392.84 117.09 393.04 116.86 393.04L114.61 393.04C114.29 393.04 114.09 392.81 114.14 392.47L117.11 375.68Z" />
		<path id="Path 6" fill-rule="evenodd" class="shp0" d="M139.36 386.72C140.36 386.72 141.19 386.99 141.19 386.99C141.21 385.72 140.81 385.27 139.89 385.27C138.96 385.27 137.66 385.47 137.09 385.65C136.74 385.75 136.56 385.52 136.51 385.2L136.29 383.9C136.22 383.52 136.41 383.35 136.64 383.27C136.84 383.2 138.44 382.8 140.04 382.8C143.16 382.8 143.88 384.42 143.88 387.14L143.88 392.57C143.88 392.81 143.66 393.04 143.41 393.04L142.51 393.04C142.34 393.04 142.21 392.96 142.09 392.69L141.79 392.01C141.21 392.54 140.29 393.29 138.74 393.29C136.74 393.29 135.36 391.99 135.36 389.87C135.36 388.09 136.81 386.72 139.36 386.72ZM139.41 391.17C140.21 391.17 140.99 390.49 141.14 390.19L141.14 388.82C141.14 388.82 140.46 388.52 139.74 388.52C138.76 388.52 138.11 389.07 138.11 389.87C138.11 390.62 138.64 391.17 139.41 391.17ZM146.76 383.52C146.76 383.25 146.99 383.05 147.24 383.05L148.19 383.05C148.41 383.05 148.54 383.17 148.61 383.35L148.96 384.27C149.34 383.87 150.56 382.8 152.49 382.8C155.66 382.8 156.93 385.17 156.93 387.77L156.93 392.57C156.93 392.81 156.71 393.04 156.46 393.04L154.41 393.04C154.14 393.04 153.94 392.81 153.94 392.57L153.94 387.62C153.94 386.32 153.26 385.49 152.06 385.49C150.76 385.49 149.96 386.39 149.71 387.07L149.71 392.57C149.71 392.92 149.56 393.04 149.09 393.04L147.24 393.04C146.99 393.04 146.76 392.81 146.76 392.57L146.76 383.52ZM163.01 386.72C164.01 386.72 164.84 386.99 164.84 386.99C164.86 385.72 164.46 385.27 163.54 385.27C162.61 385.27 161.31 385.47 160.74 385.65C160.39 385.75 160.21 385.52 160.16 385.2L159.94 383.9C159.86 383.52 160.06 383.35 160.29 383.27C160.49 383.2 162.09 382.8 163.69 382.8C166.81 382.8 167.53 384.42 167.53 387.14L167.53 392.57C167.53 392.81 167.31 393.04 167.06 393.04L166.16 393.04C165.98 393.04 165.86 392.96 165.74 392.69L165.44 392.01C164.86 392.54 163.94 393.29 162.39 393.29C160.39 393.29 159.01 391.99 159.01 389.87C159.01 388.09 160.46 386.72 163.01 386.72ZM163.06 391.17C163.86 391.17 164.64 390.49 164.79 390.19L164.79 388.82C164.79 388.82 164.11 388.52 163.39 388.52C162.41 388.52 161.76 389.07 161.76 389.87C161.76 390.62 162.29 391.17 163.06 391.17ZM171.24 389.49C171.24 389.49 170.49 388.64 170.49 387.14C170.49 384.82 172.36 382.8 174.84 382.8L179.38 382.8C179.66 382.8 179.86 383 179.86 383.27L179.86 384.1L179.58 384.52L178.18 384.97C178.18 384.97 179.18 385.75 179.18 387.52C179.18 389.49 177.53 391.44 174.91 391.44C173.96 391.44 173.31 391.24 172.91 391.24C172.56 391.24 171.99 391.59 171.99 392.19C171.99 392.71 172.44 393.04 172.99 393.04L176.19 393.04C178.46 393.04 180.31 394.34 180.31 396.54C180.31 398.84 178.46 400.79 174.84 400.79C171.14 400.79 169.74 398.96 169.74 397.36C169.74 395.86 170.99 395.14 171.24 394.99L171.24 394.91C170.81 394.79 169.36 394.11 169.36 392.29C169.36 390.34 171.24 389.49 171.24 389.49ZM174.81 398.29C176.21 398.29 177.14 397.66 177.14 396.71C177.14 396.26 176.78 395.49 175.31 395.49C174.76 395.49 174.21 395.51 173.69 395.59C173.39 395.69 172.61 396.04 172.61 396.81C172.61 397.69 173.46 398.29 174.81 398.29ZM174.91 389.07C175.94 389.07 176.64 388.32 176.64 387.27C176.64 386.22 175.94 385.47 174.91 385.47C173.91 385.47 173.16 386.22 173.16 387.27C173.16 388.32 173.91 389.07 174.91 389.07ZM186.31 382.8C188.89 382.8 190.98 384.75 190.98 387.44L190.93 388.12C190.91 388.37 190.68 388.54 190.46 388.54L184.06 388.54C184.14 389.57 185.01 390.72 186.46 390.72C187.24 390.72 187.96 390.42 188.41 390.09C188.66 389.94 188.89 389.89 189.06 390.09L190.08 391.27C190.26 391.44 190.31 391.72 190.06 391.92C189.23 392.69 187.96 393.29 186.34 393.29C183.34 393.29 181.21 390.92 181.21 388.04C181.21 385.22 183.34 382.8 186.31 382.8ZM188.06 386.79C187.99 385.87 187.19 385.1 186.24 385.1C185.24 385.1 184.41 385.84 184.29 386.79L188.06 386.79ZM193.09 383.52C193.09 383.25 193.31 383.05 193.56 383.05L194.49 383.05C194.71 383.05 194.86 383.17 194.91 383.32L195.26 384.27C195.69 383.8 196.84 382.8 198.61 382.8C200.03 382.8 201.03 383.35 201.86 384.35C202.28 383.9 203.58 382.8 205.38 382.8C208.58 382.8 209.75 385.17 209.75 387.79L209.75 392.57C209.75 392.81 209.55 393.04 209.28 393.04L207.26 393.04C206.98 393.04 206.78 392.81 206.78 392.57L206.78 387.62C206.78 386.32 206.16 385.49 204.91 385.49C203.46 385.49 202.81 386.54 202.81 386.54C202.81 386.54 202.83 387.05 202.83 387.49L202.83 392.57C202.83 392.81 202.61 393.04 202.36 393.04L200.48 393.04C200.21 393.04 200.01 392.81 200.01 392.57L200.01 387.62C200.01 386.32 199.44 385.49 198.16 385.49C196.91 385.49 196.31 386.39 196.06 387.07L196.06 392.57C196.06 392.81 195.84 393.04 195.59 393.04L193.56 393.04C193.31 393.04 193.09 392.81 193.09 392.57L193.09 383.52ZM216.91 382.8C219.48 382.8 221.58 384.75 221.58 387.44L221.53 388.12C221.51 388.37 221.28 388.54 221.06 388.54L214.66 388.54C214.74 389.57 215.61 390.72 217.06 390.72C217.83 390.72 218.56 390.42 219.01 390.09C219.26 389.94 219.48 389.89 219.66 390.09L220.68 391.27C220.86 391.44 220.91 391.72 220.66 391.92C219.83 392.69 218.56 393.29 216.94 393.29C213.94 393.29 211.81 390.92 211.81 388.04C211.81 385.22 213.94 382.8 216.91 382.8ZM218.66 386.79C218.58 385.87 217.79 385.1 216.84 385.1C215.84 385.1 215.01 385.84 214.89 386.79L218.66 386.79ZM223.69 383.52C223.69 383.25 223.91 383.05 224.16 383.05L225.11 383.05C225.34 383.05 225.46 383.17 225.54 383.35L225.89 384.27C226.26 383.87 227.49 382.8 229.41 382.8C232.58 382.8 233.86 385.17 233.86 387.77L233.86 392.57C233.86 392.81 233.63 393.04 233.38 393.04L231.33 393.04C231.06 393.04 230.86 392.81 230.86 392.57L230.86 387.62C230.86 386.32 230.19 385.49 228.99 385.49C227.69 385.49 226.89 386.39 226.64 387.07L226.64 392.57C226.64 392.92 226.49 393.04 226.01 393.04L224.16 393.04C223.91 393.04 223.69 392.81 223.69 392.57L223.69 383.52ZM237.11 385.67L236.26 385.67C236.01 385.67 235.81 385.45 235.81 385.2L235.81 383.52C235.81 383.25 236.01 383.05 236.26 383.05L237.11 383.05L237.11 380.27C237.11 380.02 237.34 379.8 237.59 379.8L239.64 379.77C239.89 379.77 240.09 380 240.09 380.25L240.09 383.05L242.29 383.05C242.56 383.05 242.76 383.25 242.76 383.52L242.76 385.2C242.76 385.45 242.56 385.67 242.29 385.67L240.09 385.67L240.09 389.67C240.09 390.37 240.46 390.47 240.86 390.47C241.29 390.47 241.81 390.29 242.09 390.19C242.36 390.09 242.56 390.22 242.64 390.47L243.13 392.04C243.23 392.29 243.11 392.54 242.86 392.64C242.74 392.71 241.11 393.29 239.89 393.29C237.96 393.29 237.11 392.09 237.11 390.07L237.11 385.67ZM459.78 351.34C459.78 351.09 459.98 350.86 460.26 350.86L470.43 350.86C470.7 350.86 470.9 351.09 470.9 351.34L470.9 353.39C470.9 353.64 470.7 353.86 470.43 353.86L463.03 353.86L463.03 358.56L469.2 358.56C469.45 358.56 469.68 358.79 469.68 359.04L469.68 361.09C469.68 361.34 469.45 361.56 469.2 361.56L463.03 361.56L463.03 367.88C463.03 368.13 462.81 368.36 462.56 368.36L460.26 368.36C459.98 368.36 459.78 368.13 459.78 367.88L459.78 351.34ZM476.58 358.11C479.41 358.11 481.7 360.51 481.7 363.33C481.7 366.21 479.41 368.61 476.58 368.61C473.76 368.61 471.46 366.21 471.46 363.33C471.46 360.51 473.76 358.11 476.58 358.11ZM476.58 365.91C477.91 365.91 478.98 364.76 478.98 363.33C478.98 361.94 477.91 360.81 476.58 360.81C475.23 360.81 474.18 361.94 474.18 363.33C474.18 364.76 475.23 365.91 476.58 365.91ZM488.28 358.11C491.1 358.11 493.4 360.51 493.4 363.33C493.4 366.21 491.1 368.61 488.28 368.61C485.46 368.61 483.16 366.21 483.16 363.33C483.16 360.51 485.46 358.11 488.28 358.11ZM488.28 365.91C489.61 365.91 490.68 364.76 490.68 363.33C490.68 361.94 489.61 360.81 488.28 360.81C486.93 360.81 485.88 361.94 485.88 363.33C485.88 364.76 486.93 365.91 488.28 365.91ZM499.83 358.11C500.83 358.11 501.6 358.39 502.05 358.56L502.05 351.34C502.05 351.09 502.28 350.86 502.53 350.86L504.65 350.86C504.9 350.86 505.13 351.09 505.13 351.34L505.13 367.88C505.13 368.13 504.9 368.36 504.65 368.36L503.68 368.36C503.45 368.36 503.28 368.16 503.2 367.88L502.95 367.11C502.95 367.11 501.78 368.61 499.68 368.61C496.96 368.61 494.88 366.23 494.88 363.36C494.88 360.44 496.86 358.11 499.83 358.11ZM500.06 365.91C501.38 365.91 501.98 364.88 502.16 364.28L502.16 361.39C502.16 361.39 501.46 360.81 500.21 360.81C498.81 360.81 497.78 361.96 497.78 363.36C497.78 364.76 498.73 365.91 500.06 365.91ZM517.46 358.89L517.46 358.84L516.93 358.26C515.93 357.21 515.21 356.14 515.23 354.66C515.23 352.77 516.81 350.61 519.96 350.61C522.75 350.61 524.68 352.44 524.68 354.69C524.68 357.26 522.13 358.79 521.63 359.24L524.5 362.14C524.9 361.34 525.23 360.31 525.4 359.36C525.5 358.84 525.65 358.56 526.23 358.74L527.6 359.14C528.25 359.31 528.07 359.86 528.02 360.11C527.6 361.91 526.8 363.48 526.47 364.08L528.7 366.18C529 366.48 529.25 366.76 528.65 367.33L527.62 368.38C527.32 368.65 526.92 368.71 526.52 368.3L524.73 366.48C524.28 367.01 522.53 368.61 519.28 368.61C516.11 368.61 514.01 366.46 514.01 363.91C514.01 360.61 517.01 359.16 517.46 358.89ZM519.61 365.93C521.48 365.93 522.45 364.88 522.83 364.46L519.1 360.51C518.7 360.76 516.98 361.59 516.98 363.58C516.98 364.96 518.13 365.93 519.61 365.93ZM521.98 354.84C521.98 353.89 521.15 352.96 519.85 352.96C518.7 352.96 518.01 353.74 518.01 354.66C517.98 355.54 518.56 356.11 519.3 356.91L519.85 357.46C520.23 357.24 521.98 356.39 521.98 354.84ZM537.18 351.34C537.18 351.09 537.38 350.86 537.66 350.86L543.38 350.86C546.35 350.86 548.65 352.86 548.65 355.49C548.65 357.41 547.08 358.91 545.9 359.46C547.23 359.89 549.15 361.24 549.15 363.53C549.15 366.33 546.75 368.36 543.7 368.36L537.66 368.36C537.38 368.36 537.18 368.13 537.18 367.88L537.18 351.34ZM543.08 358.21C544.35 358.21 545.23 357.21 545.23 355.96C545.23 354.71 544.35 353.84 543.08 353.84L540.41 353.84L540.41 358.21L543.08 358.21ZM543.43 365.41C544.68 365.41 545.68 364.43 545.68 363.13C545.68 361.88 544.43 360.96 543.13 360.96L540.41 360.96L540.41 365.41L543.43 365.41ZM555.93 358.11C558.5 358.11 560.6 360.06 560.6 362.76L560.55 363.44C560.53 363.68 560.3 363.86 560.08 363.86L553.68 363.86C553.76 364.88 554.63 366.03 556.08 366.03C556.85 366.03 557.58 365.73 558.03 365.41C558.28 365.26 558.5 365.21 558.68 365.41L559.7 366.58C559.88 366.76 559.93 367.03 559.68 367.23C558.85 368.01 557.58 368.61 555.96 368.61C552.96 368.61 550.83 366.23 550.83 363.36C550.83 360.54 552.96 358.11 555.93 358.11ZM557.68 362.11C557.6 361.19 556.8 360.41 555.86 360.41C554.86 360.41 554.03 361.16 553.91 362.11L557.68 362.11ZM561.38 358.96C561.23 358.64 561.36 358.36 561.73 358.36L563.91 358.36C564.16 358.36 564.28 358.49 564.36 358.64L566.38 363.28L566.43 363.28L568.58 358.64C568.7 358.39 568.9 358.36 569.18 358.36L571.13 358.36C571.5 358.36 571.65 358.64 571.48 358.96L566.91 368.36C566.83 368.48 566.71 368.61 566.48 368.61L566.36 368.61C566.13 368.61 566.01 368.48 565.93 368.36L561.38 358.96ZM577.51 358.11C580.08 358.11 582.18 360.06 582.18 362.76L582.13 363.44C582.1 363.68 581.88 363.86 581.65 363.86L575.26 363.86C575.33 364.88 576.21 366.03 577.66 366.03C578.43 366.03 579.16 365.73 579.6 365.41C579.85 365.26 580.08 365.21 580.25 365.41L581.28 366.58C581.45 366.76 581.5 367.03 581.25 367.23C580.43 368.01 579.16 368.61 577.53 368.61C574.53 368.61 572.41 366.23 572.41 363.36C572.41 360.54 574.53 358.11 577.51 358.11ZM579.25 362.11C579.18 361.19 578.38 360.41 577.43 360.41C576.43 360.41 575.61 361.16 575.48 362.11L579.25 362.11ZM584.28 358.84C584.28 358.56 584.51 358.36 584.76 358.36L585.71 358.36C585.93 358.36 586.08 358.49 586.16 358.69L586.51 359.66C586.86 359.16 587.78 358.11 589.33 358.11C590.5 358.11 591.55 358.49 591.25 359.11L590.33 360.74C590.2 360.96 589.95 361.06 589.75 360.96C589.68 360.93 589.3 360.81 589.03 360.81C588.03 360.81 587.43 361.49 587.25 361.84L587.25 367.88C587.25 368.23 587.03 368.36 586.68 368.36L584.76 368.36C584.51 368.36 584.28 368.13 584.28 367.88L584.28 358.84ZM596.08 362.04C597.08 362.04 597.91 362.31 597.91 362.31C597.93 361.04 597.53 360.59 596.61 360.59C595.68 360.59 594.38 360.79 593.81 360.96C593.46 361.06 593.28 360.84 593.23 360.51L593.01 359.21C592.93 358.84 593.13 358.66 593.36 358.59C593.56 358.51 595.16 358.11 596.76 358.11C599.88 358.11 600.6 359.74 600.6 362.46L600.6 367.88C600.6 368.13 600.38 368.36 600.13 368.36L599.23 368.36C599.05 368.36 598.93 368.28 598.8 368.01L598.51 367.33C597.93 367.86 597.01 368.61 595.46 368.61C593.46 368.61 592.09 367.31 592.09 365.18C592.09 363.41 593.53 362.04 596.08 362.04ZM596.13 366.48C596.93 366.48 597.71 365.81 597.86 365.51L597.86 364.13C597.86 364.13 597.18 363.83 596.46 363.83C595.48 363.83 594.83 364.38 594.83 365.18C594.83 365.93 595.36 366.48 596.13 366.48ZM604.31 364.81C604.31 364.81 603.56 363.96 603.56 362.46C603.56 360.14 605.43 358.11 607.9 358.11L612.45 358.11C612.73 358.11 612.93 358.31 612.93 358.59L612.93 359.41L612.65 359.84L611.25 360.29C611.25 360.29 612.25 361.06 612.25 362.84C612.25 364.81 610.6 366.76 607.98 366.76C607.03 366.76 606.38 366.56 605.98 366.56C605.63 366.56 605.06 366.91 605.06 367.51C605.06 368.03 605.51 368.36 606.06 368.36L609.25 368.36C611.53 368.36 613.38 369.66 613.38 371.85C613.38 374.15 611.53 376.1 607.9 376.1C604.21 376.1 602.81 374.28 602.81 372.68C602.81 371.18 604.06 370.46 604.31 370.3L604.31 370.23C603.88 370.11 602.43 369.43 602.43 367.61C602.43 365.66 604.31 364.81 604.31 364.81ZM607.88 373.6C609.28 373.6 610.2 372.98 610.2 372.03C610.2 371.58 609.85 370.81 608.38 370.81C607.83 370.81 607.28 370.83 606.76 370.91C606.45 371 605.68 371.35 605.68 372.13C605.68 373 606.53 373.6 607.88 373.6ZM607.98 364.38C609 364.38 609.7 363.63 609.7 362.58C609.7 361.53 609 360.79 607.98 360.79C606.98 360.79 606.23 361.53 606.23 362.58C606.23 363.63 606.98 364.38 607.98 364.38ZM619.38 358.11C621.95 358.11 624.05 360.06 624.05 362.76L624 363.44C623.98 363.68 623.75 363.86 623.53 363.86L617.13 363.86C617.2 364.88 618.08 366.03 619.53 366.03C620.3 366.03 621.03 365.73 621.48 365.41C621.73 365.26 621.95 365.21 622.13 365.41L623.15 366.58C623.33 366.76 623.38 367.03 623.13 367.23C622.3 368.01 621.03 368.61 619.4 368.61C616.4 368.61 614.28 366.23 614.28 363.36C614.28 360.54 616.4 358.11 619.38 358.11ZM621.13 362.11C621.05 361.19 620.25 360.41 619.3 360.41C618.3 360.41 617.48 361.16 617.35 362.11L621.13 362.11ZM501.9 395.91L502.8 394.36C503 394.01 503.42 394.01 503.64 394.18C503.77 394.26 505.79 395.73 507.42 395.73C508.72 395.73 509.69 394.88 509.69 393.81C509.69 392.53 508.62 391.66 506.52 390.81C504.17 389.86 501.82 388.36 501.82 385.41C501.82 383.19 503.47 380.62 507.44 380.62C509.99 380.62 511.94 381.92 512.44 382.29C512.69 382.44 512.76 382.87 512.59 383.11L511.64 384.54C511.44 384.84 511.07 385.04 510.77 384.84C510.57 384.71 508.67 383.46 507.29 383.46C505.87 383.46 505.09 384.41 505.09 385.21C505.09 386.39 506.02 387.19 508.04 388.01C510.47 388.99 513.26 390.44 513.26 393.66C513.26 396.23 511.04 398.61 507.52 398.61C504.37 398.61 502.52 397.13 502.02 396.66C501.8 396.43 501.67 396.31 501.9 395.91Z" />
		<path id="Path 7" fill-rule="evenodd" class="shp0" d="M519.89 388.11C522.47 388.11 524.57 390.06 524.57 392.76L524.52 393.44C524.49 393.68 524.27 393.86 524.04 393.86L517.65 393.86C517.72 394.88 518.59 396.03 520.04 396.03C520.82 396.03 521.54 395.73 521.99 395.41C522.24 395.26 522.47 395.21 522.64 395.41L523.67 396.58C523.84 396.76 523.89 397.03 523.64 397.23C522.82 398.01 521.54 398.61 519.92 398.61C516.92 398.61 514.8 396.23 514.8 393.36C514.8 390.54 516.92 388.11 519.89 388.11ZM521.64 392.11C521.57 391.19 520.77 390.41 519.82 390.41C518.82 390.41 518 391.16 517.87 392.11L521.64 392.11ZM526.67 388.84C526.67 388.56 526.9 388.36 527.15 388.36L528.1 388.36C528.32 388.36 528.47 388.49 528.55 388.69L528.9 389.66C529.24 389.16 530.17 388.11 531.72 388.11C532.89 388.11 533.94 388.49 533.64 389.11L532.72 390.74C532.59 390.96 532.34 391.06 532.14 390.96C532.07 390.94 531.69 390.81 531.42 390.81C530.42 390.81 529.82 391.49 529.64 391.84L529.64 397.88C529.64 398.23 529.42 398.36 529.07 398.36L527.15 398.36C526.9 398.36 526.67 398.13 526.67 397.88L526.67 388.84ZM534.35 388.96C534.2 388.64 534.32 388.36 534.7 388.36L536.87 388.36C537.12 388.36 537.24 388.49 537.32 388.64L539.34 393.29L539.39 393.29L541.54 388.64C541.67 388.39 541.87 388.36 542.14 388.36L544.09 388.36C544.47 388.36 544.61 388.64 544.44 388.96L539.87 398.36C539.79 398.48 539.67 398.61 539.44 398.61L539.32 398.61C539.09 398.61 538.97 398.48 538.89 398.36L534.35 388.96ZM546.12 388.84C546.12 388.56 546.35 388.36 546.6 388.36L548.67 388.36C548.92 388.36 549.14 388.56 549.14 388.84L549.14 397.88C549.14 398.13 548.92 398.36 548.67 398.36L546.6 398.36C546.35 398.36 546.12 398.13 546.12 397.88L546.12 388.84ZM545.9 383.09C545.9 382.14 546.65 381.37 547.6 381.37C548.57 381.37 549.34 382.14 549.34 383.09C549.34 384.04 548.57 384.81 547.6 384.81C546.65 384.81 545.9 384.04 545.9 383.09ZM556.69 388.11C558.24 388.11 559.44 388.74 560.39 389.89C560.56 390.11 560.51 390.41 560.27 390.59L559.12 391.69C558.89 391.89 558.67 391.76 558.49 391.61C558.09 391.16 557.47 390.81 556.77 390.81C555.42 390.81 554.32 391.96 554.32 393.36C554.32 394.78 555.39 395.91 556.74 395.91C557.82 395.91 558.29 395.39 558.74 394.96C558.92 394.78 559.17 394.73 559.36 394.88L560.44 395.81C560.69 396.01 560.79 396.26 560.61 396.51C559.76 397.83 558.44 398.61 556.67 398.61C553.84 398.61 551.37 396.36 551.37 393.36C551.37 390.41 553.89 388.11 556.69 388.11ZM567.14 388.11C569.72 388.11 571.82 390.06 571.82 392.76L571.77 393.44C571.74 393.68 571.52 393.86 571.29 393.86L564.89 393.86C564.97 394.88 565.84 396.03 567.29 396.03C568.07 396.03 568.79 395.73 569.24 395.41C569.49 395.26 569.72 395.21 569.89 395.41L570.92 396.58C571.09 396.76 571.14 397.03 570.89 397.23C570.07 398.01 568.79 398.61 567.17 398.61C564.17 398.61 562.05 396.23 562.05 393.36C562.05 390.54 564.17 388.11 567.14 388.11ZM568.89 392.11C568.82 391.19 568.02 390.41 567.07 390.41C566.07 390.41 565.24 391.16 565.12 392.11L568.89 392.11ZM573.37 397.16L574.05 395.81C574.15 395.56 574.39 395.51 574.62 395.63C574.62 395.63 575.74 396.23 576.89 396.23C577.39 396.23 577.74 396.03 577.74 395.61C577.74 395.16 577.39 394.88 576.07 394.36C574.15 393.61 573.25 392.59 573.25 391.06C573.25 389.54 574.37 388.11 576.92 388.11C578.39 388.11 579.47 388.54 579.99 388.89C580.22 389.04 580.34 389.31 580.22 389.56L579.59 390.84C579.47 391.06 579.19 391.09 578.99 391.01C578.99 391.01 577.87 390.49 576.92 390.49C576.32 390.49 576.07 390.74 576.07 391.06C576.07 391.51 576.52 391.66 577.44 392.04C579.37 392.78 580.81 393.61 580.81 395.56C580.81 397.21 579.37 398.61 576.84 398.61C575.19 398.61 574.05 398.08 573.52 397.68C573.37 397.56 573.27 397.36 573.37 397.16ZM805.08 355.59C805.08 355.34 805.28 355.11 805.56 355.11L815.73 355.11C816 355.11 816.2 355.34 816.2 355.59L816.2 357.64C816.2 357.89 816 358.11 815.73 358.11L808.33 358.11L808.33 362.81L814.5 362.81C814.75 362.81 814.98 363.04 814.98 363.29L814.98 365.34C814.98 365.59 814.75 365.81 814.5 365.81L808.33 365.81L808.33 372.13C808.33 372.38 808.11 372.61 807.86 372.61L805.56 372.61C805.28 372.61 805.08 372.38 805.08 372.13L805.08 355.59ZM818.04 363.09C818.04 362.81 818.26 362.61 818.51 362.61L820.58 362.61C820.83 362.61 821.06 362.81 821.06 363.09L821.06 372.13C821.06 372.38 820.83 372.61 820.58 372.61L818.51 372.61C818.26 372.61 818.04 372.38 818.04 372.13L818.04 363.09ZM817.81 357.34C817.81 356.39 818.56 355.62 819.51 355.62C820.48 355.62 821.26 356.39 821.26 357.34C821.26 358.29 820.48 359.06 819.51 359.06C818.56 359.06 817.81 358.29 817.81 357.34ZM824.06 363.09C824.06 362.81 824.29 362.61 824.53 362.61L825.48 362.61C825.71 362.61 825.83 362.74 825.91 362.91L826.26 363.84C826.63 363.44 827.86 362.36 829.78 362.36C832.95 362.36 834.23 364.74 834.23 367.34L834.23 372.13C834.23 372.38 834 372.61 833.75 372.61L831.71 372.61C831.43 372.61 831.23 372.38 831.23 372.13L831.23 367.18C831.23 365.88 830.56 365.06 829.36 365.06C828.06 365.06 827.26 365.96 827.01 366.64L827.01 372.13C827.01 372.48 826.86 372.61 826.38 372.61L824.53 372.61C824.29 372.61 824.06 372.38 824.06 372.13L824.06 363.09ZM840.31 366.29C841.31 366.29 842.13 366.56 842.13 366.56C842.16 365.29 841.76 364.84 840.83 364.84C839.91 364.84 838.61 365.04 838.03 365.21C837.68 365.31 837.51 365.09 837.46 364.76L837.23 363.46C837.16 363.09 837.36 362.91 837.58 362.84C837.79 362.76 839.38 362.36 840.98 362.36C844.11 362.36 844.83 363.99 844.83 366.71L844.83 372.13C844.83 372.38 844.61 372.61 844.36 372.61L843.46 372.61C843.28 372.61 843.16 372.53 843.03 372.26L842.73 371.58C842.16 372.11 841.23 372.86 839.68 372.86C837.68 372.86 836.31 371.56 836.31 369.43C836.31 367.66 837.76 366.29 840.31 366.29ZM840.36 370.73C841.16 370.73 841.93 370.06 842.08 369.76L842.08 368.38C842.08 368.38 841.41 368.08 840.68 368.08C839.71 368.08 839.06 368.63 839.06 369.43C839.06 370.18 839.58 370.73 840.36 370.73ZM847.71 363.09C847.71 362.81 847.93 362.61 848.18 362.61L849.13 362.61C849.36 362.61 849.48 362.74 849.56 362.91L849.91 363.84C850.28 363.44 851.51 362.36 853.43 362.36C856.6 362.36 857.88 364.74 857.88 367.34L857.88 372.13C857.88 372.38 857.65 372.61 857.4 372.61L855.35 372.61C855.08 372.61 854.88 372.38 854.88 372.13L854.88 367.18C854.88 365.88 854.2 365.06 853.01 365.06C851.71 365.06 850.91 365.96 850.66 366.64L850.66 372.13C850.66 372.48 850.51 372.61 850.03 372.61L848.18 372.61C847.93 372.61 847.71 372.38 847.71 372.13L847.71 363.09ZM865.23 362.36C866.78 362.36 867.98 362.99 868.93 364.14C869.1 364.36 869.05 364.66 868.8 364.84L867.65 365.94C867.43 366.14 867.21 366.01 867.03 365.86C866.63 365.41 866.01 365.06 865.31 365.06C863.96 365.06 862.86 366.21 862.86 367.61C862.86 369.03 863.93 370.16 865.28 370.16C866.35 370.16 866.83 369.63 867.28 369.21C867.45 369.03 867.7 368.98 867.9 369.13L868.98 370.06C869.23 370.26 869.33 370.51 869.15 370.76C868.3 372.08 866.98 372.86 865.21 372.86C862.38 372.86 859.91 370.61 859.91 367.61C859.91 364.66 862.43 362.36 865.23 362.36ZM871.34 363.09C871.34 362.81 871.56 362.61 871.81 362.61L873.88 362.61C874.13 362.61 874.36 362.81 874.36 363.09L874.36 372.13C874.36 372.38 874.13 372.61 873.88 372.61L871.81 372.61C871.56 372.61 871.34 372.38 871.34 372.13L871.34 363.09ZM871.11 357.34C871.11 356.39 871.86 355.62 872.81 355.62C873.78 355.62 874.56 356.39 874.56 357.34C874.56 358.29 873.78 359.06 872.81 359.06C871.86 359.06 871.11 358.29 871.11 357.34ZM880.63 366.29C881.63 366.29 882.45 366.56 882.45 366.56C882.48 365.29 882.08 364.84 881.16 364.84C880.23 364.84 878.93 365.04 878.36 365.21C878.01 365.31 877.83 365.09 877.78 364.76L877.56 363.46C877.48 363.09 877.68 362.91 877.91 362.84C878.11 362.76 879.71 362.36 881.31 362.36C884.43 362.36 885.15 363.99 885.15 366.71L885.15 372.13C885.15 372.38 884.93 372.61 884.68 372.61L883.78 372.61C883.6 372.61 883.48 372.53 883.36 372.26L883.06 371.58C882.48 372.11 881.56 372.86 880.01 372.86C878.01 372.86 876.63 371.56 876.63 369.43C876.63 367.66 878.08 366.29 880.63 366.29ZM880.68 370.73C881.48 370.73 882.26 370.06 882.41 369.76L882.41 368.38C882.41 368.38 881.73 368.08 881.01 368.08C880.03 368.08 879.38 368.63 879.38 369.43C879.38 370.18 879.91 370.73 880.68 370.73ZM888.03 355.59C888.03 355.34 888.26 355.11 888.51 355.11L890.61 355.11C890.86 355.11 891.08 355.34 891.08 355.59L891.08 372.13C891.08 372.38 890.86 372.61 890.61 372.61L888.51 372.61C888.26 372.61 888.03 372.38 888.03 372.13L888.03 355.59ZM902.21 355.24C902.23 355.04 902.38 354.86 902.66 354.86L903.06 354.86C903.26 354.86 903.41 354.96 903.48 355.11L908.98 366.91L909.05 366.91L914.55 355.11C914.62 354.96 914.75 354.86 914.97 354.86L915.38 354.86C915.65 354.86 915.8 355.04 915.83 355.24L918.77 372.03C918.85 372.38 918.65 372.61 918.32 372.61L916.05 372.61C915.83 372.61 915.62 372.41 915.58 372.23L914.1 362.76L914.02 362.76L909.65 372.58C909.6 372.73 909.45 372.86 909.23 372.86L908.78 372.86C908.55 372.86 908.43 372.73 908.35 372.58L903.93 362.76L903.85 362.76L902.41 372.23C902.38 372.41 902.18 372.61 901.96 372.61L899.71 372.61C899.38 372.61 899.18 372.38 899.23 372.03L902.21 355.24ZM924.46 366.29C925.46 366.29 926.28 366.56 926.28 366.56C926.3 365.29 925.91 364.84 924.98 364.84C924.06 364.84 922.76 365.04 922.18 365.21C921.83 365.31 921.66 365.09 921.61 364.76L921.38 363.46C921.31 363.09 921.51 362.91 921.73 362.84C921.93 362.76 923.53 362.36 925.13 362.36C928.25 362.36 928.98 363.99 928.98 366.71L928.98 372.13C928.98 372.38 928.75 372.61 928.5 372.61L927.6 372.61C927.43 372.61 927.31 372.53 927.18 372.26L926.88 371.58C926.3 372.11 925.38 372.86 923.83 372.86C921.83 372.86 920.46 371.56 920.46 369.43C920.46 367.66 921.91 366.29 924.46 366.29ZM924.51 370.73C925.31 370.73 926.08 370.06 926.23 369.76L926.23 368.38C926.23 368.38 925.56 368.08 924.83 368.08C923.86 368.08 923.21 368.63 923.21 369.43C923.21 370.18 923.73 370.73 924.51 370.73ZM931.86 363.09C931.86 362.81 932.08 362.61 932.33 362.61L933.28 362.61C933.51 362.61 933.63 362.74 933.71 362.91L934.06 363.84C934.43 363.44 935.66 362.36 937.58 362.36C940.75 362.36 942.03 364.74 942.03 367.34L942.03 372.13C942.03 372.38 941.8 372.61 941.55 372.61L939.5 372.61C939.23 372.61 939.03 372.38 939.03 372.13L939.03 367.18C939.03 365.88 938.36 365.06 937.15 365.06C935.86 365.06 935.06 365.96 934.81 366.64L934.81 372.13C934.81 372.48 934.66 372.61 934.18 372.61L932.33 372.61C932.08 372.61 931.86 372.38 931.86 372.13L931.86 363.09ZM948.11 366.29C949.11 366.29 949.93 366.56 949.93 366.56C949.96 365.29 949.55 364.84 948.63 364.84C947.71 364.84 946.41 365.04 945.83 365.21C945.48 365.31 945.31 365.09 945.26 364.76L945.03 363.46C944.96 363.09 945.16 362.91 945.38 362.84C945.58 362.76 947.18 362.36 948.78 362.36C951.9 362.36 952.63 363.99 952.63 366.71L952.63 372.13C952.63 372.38 952.4 372.61 952.16 372.61L951.25 372.61C951.08 372.61 950.95 372.53 950.83 372.26L950.53 371.58C949.96 372.11 949.03 372.86 947.48 372.86C945.48 372.86 944.11 371.56 944.11 369.43C944.11 367.66 945.56 366.29 948.11 366.29ZM948.16 370.73C948.96 370.73 949.73 370.06 949.88 369.76L949.88 368.38C949.88 368.38 949.21 368.08 948.48 368.08C947.51 368.08 946.86 368.63 946.86 369.43C946.86 370.18 947.38 370.73 948.16 370.73ZM955.51 363.09C955.51 362.81 955.73 362.61 955.98 362.61L956.93 362.61C957.16 362.61 957.28 362.74 957.36 362.91L957.71 363.84C958.08 363.44 959.3 362.36 961.23 362.36C964.4 362.36 965.68 364.74 965.68 367.34L965.68 372.13C965.68 372.38 965.45 372.61 965.2 372.61L963.15 372.61C962.88 372.61 962.68 372.38 962.68 372.13L962.68 367.18C962.68 365.88 962 365.06 960.8 365.06C959.51 365.06 958.71 365.96 958.46 366.64L958.46 372.13C958.46 372.48 958.31 372.61 957.83 372.61L955.98 372.61C955.73 372.61 955.51 372.38 955.51 372.13L955.51 363.09ZM971.76 366.29C972.75 366.29 973.58 366.56 973.58 366.56C973.6 365.29 973.2 364.84 972.28 364.84C971.35 364.84 970.06 365.04 969.48 365.21C969.13 365.31 968.96 365.09 968.91 364.76L968.68 363.46C968.61 363.09 968.81 362.91 969.03 362.84C969.23 362.76 970.83 362.36 972.43 362.36C975.55 362.36 976.28 363.99 976.28 366.71L976.28 372.13C976.28 372.38 976.05 372.61 975.8 372.61L974.9 372.61C974.73 372.61 974.6 372.53 974.48 372.26L974.18 371.58C973.6 372.11 972.68 372.86 971.13 372.86C969.13 372.86 967.76 371.56 967.76 369.43C967.76 367.66 969.21 366.29 971.76 366.29ZM971.8 370.73C972.6 370.73 973.38 370.06 973.53 369.76L973.53 368.38C973.53 368.38 972.85 368.08 972.13 368.08C971.16 368.08 970.51 368.63 970.51 369.43C970.51 370.18 971.03 370.73 971.8 370.73ZM979.98 369.06C979.98 369.06 979.23 368.21 979.23 366.71C979.23 364.39 981.11 362.36 983.58 362.36L988.13 362.36C988.4 362.36 988.6 362.56 988.6 362.84L988.6 363.66L988.33 364.09L986.93 364.54C986.93 364.54 987.93 365.31 987.93 367.09C987.93 369.06 986.28 371.01 983.65 371.01C982.71 371.01 982.05 370.81 981.66 370.81C981.31 370.81 980.73 371.16 980.73 371.76C980.73 372.28 981.18 372.61 981.73 372.61L984.93 372.61C987.2 372.61 989.05 373.91 989.05 376.1C989.05 378.4 987.2 380.35 983.58 380.35C979.88 380.35 978.48 378.53 978.48 376.93C978.48 375.43 979.73 374.71 979.98 374.55L979.98 374.48C979.56 374.36 978.11 373.68 978.11 371.86C978.11 369.91 979.98 369.06 979.98 369.06ZM983.55 377.85C984.95 377.85 985.88 377.23 985.88 376.28C985.88 375.83 985.53 375.06 984.05 375.06C983.5 375.06 982.96 375.08 982.43 375.16C982.13 375.25 981.36 375.6 981.36 376.38C981.36 377.25 982.2 377.85 983.55 377.85ZM983.65 368.63C984.68 368.63 985.38 367.88 985.38 366.83C985.38 365.79 984.68 365.04 983.65 365.04C982.65 365.04 981.91 365.79 981.91 366.83C981.91 367.88 982.65 368.63 983.65 368.63ZM995.05 362.36C997.63 362.36 999.73 364.31 999.73 367.01L999.68 367.69C999.65 367.93 999.43 368.11 999.2 368.11L992.8 368.11C992.88 369.13 993.75 370.28 995.21 370.28C995.98 370.28 996.7 369.98 997.15 369.66C997.4 369.51 997.63 369.46 997.8 369.66L998.83 370.83C999 371.01 999.05 371.28 998.8 371.48C997.98 372.26 996.7 372.86 995.08 372.86C992.08 372.86 989.96 370.48 989.96 367.61C989.96 364.79 992.08 362.36 995.05 362.36ZM996.8 366.36C996.73 365.44 995.93 364.66 994.98 364.66C993.98 364.66 993.15 365.41 993.03 366.36L996.8 366.36ZM1001.83 363.09C1001.83 362.81 1002.06 362.61 1002.31 362.61L1003.23 362.61C1003.46 362.61 1003.61 362.74 1003.65 362.89L1004 363.84C1004.43 363.36 1005.58 362.36 1007.35 362.36C1008.78 362.36 1009.78 362.91 1010.6 363.91C1011.02 363.46 1012.32 362.36 1014.12 362.36C1017.32 362.36 1018.5 364.74 1018.5 367.36L1018.5 372.13C1018.5 372.38 1018.3 372.61 1018.02 372.61L1016 372.61C1015.72 372.61 1015.52 372.38 1015.52 372.13L1015.52 367.18C1015.52 365.88 1014.9 365.06 1013.65 365.06C1012.2 365.06 1011.55 366.11 1011.55 366.11C1011.55 366.11 1011.58 366.61 1011.58 367.06L1011.58 372.13C1011.58 372.38 1011.35 372.61 1011.1 372.61L1009.23 372.61C1008.95 372.61 1008.75 372.38 1008.75 372.13L1008.75 367.18C1008.75 365.88 1008.18 365.06 1006.9 365.06C1005.65 365.06 1005.05 365.96 1004.8 366.64L1004.8 372.13C1004.8 372.38 1004.58 372.61 1004.33 372.61L1002.31 372.61C1002.06 372.61 1001.83 372.38 1001.83 372.13L1001.83 363.09ZM1025.65 362.36C1028.23 362.36 1030.32 364.31 1030.32 367.01L1030.28 367.69C1030.25 367.93 1030.02 368.11 1029.8 368.11L1023.4 368.11C1023.48 369.13 1024.35 370.28 1025.8 370.28C1026.58 370.28 1027.3 369.98 1027.75 369.66C1028 369.51 1028.23 369.46 1028.4 369.66L1029.42 370.83C1029.6 371.01 1029.65 371.28 1029.4 371.48C1028.58 372.26 1027.3 372.86 1025.68 372.86C1022.68 372.86 1020.56 370.48 1020.56 367.61C1020.56 364.79 1022.68 362.36 1025.65 362.36ZM1027.4 366.36C1027.33 365.44 1026.53 364.66 1025.58 364.66C1024.58 364.66 1023.75 365.41 1023.63 366.36L1027.4 366.36ZM1032.43 363.09C1032.43 362.81 1032.65 362.61 1032.9 362.61L1033.85 362.61C1034.08 362.61 1034.2 362.74 1034.28 362.91L1034.63 363.84C1035 363.44 1036.23 362.36 1038.15 362.36C1041.32 362.36 1042.6 364.74 1042.6 367.34L1042.6 372.13C1042.6 372.38 1042.37 372.61 1042.13 372.61L1040.08 372.61C1039.8 372.61 1039.6 372.38 1039.6 372.13L1039.6 367.18C1039.6 365.88 1038.93 365.06 1037.73 365.06C1036.43 365.06 1035.63 365.96 1035.38 366.64L1035.38 372.13C1035.38 372.48 1035.23 372.61 1034.75 372.61L1032.9 372.61C1032.65 372.61 1032.43 372.38 1032.43 372.13L1032.43 363.09ZM1045.86 365.24L1045.01 365.24C1044.76 365.24 1044.56 365.01 1044.56 364.76L1044.56 363.09C1044.56 362.81 1044.76 362.61 1045.01 362.61L1045.86 362.61L1045.86 359.84C1045.86 359.59 1046.08 359.36 1046.33 359.36L1048.38 359.34C1048.63 359.34 1048.83 359.56 1048.83 359.81L1048.83 362.61L1051.03 362.61C1051.3 362.61 1051.5 362.81 1051.5 363.09L1051.5 364.76C1051.5 365.01 1051.3 365.24 1051.03 365.24L1048.83 365.24L1048.83 369.23C1048.83 369.93 1049.2 370.03 1049.6 370.03C1050.03 370.03 1050.55 369.86 1050.83 369.76C1051.1 369.66 1051.3 369.78 1051.38 370.03L1051.88 371.61C1051.98 371.86 1051.85 372.11 1051.6 372.21C1051.48 372.28 1049.85 372.86 1048.63 372.86C1046.7 372.86 1045.86 371.66 1045.86 369.63L1045.86 365.24Z" />
		<path id="Path 8" fill-rule="evenodd" class="shp0" d="M887.32 393.14L887.32 393.09L886.79 392.51C885.8 391.46 885.07 390.39 885.1 388.91C885.1 387.02 886.67 384.87 889.82 384.87C892.61 384.87 894.54 386.69 894.54 388.94C894.54 391.51 891.99 393.04 891.49 393.49L894.36 396.39C894.76 395.59 895.09 394.56 895.26 393.61C895.36 393.09 895.51 392.81 896.09 392.99L897.46 393.39C898.11 393.56 897.94 394.11 897.89 394.36C897.46 396.16 896.66 397.73 896.34 398.34L898.56 400.43C898.86 400.73 899.11 401.01 898.51 401.58L897.49 402.63C897.19 402.91 896.79 402.96 896.39 402.56L894.59 400.73C894.14 401.26 892.39 402.86 889.14 402.86C885.97 402.86 883.87 400.71 883.87 398.16C883.87 394.86 886.87 393.41 887.32 393.14ZM889.47 400.18C891.34 400.18 892.32 399.13 892.69 398.71L888.97 394.76C888.57 395.01 886.84 395.84 886.84 397.83C886.84 399.21 887.99 400.18 889.47 400.18ZM891.84 389.09C891.84 388.14 891.02 387.22 889.72 387.22C888.57 387.22 887.87 387.99 887.87 388.91C887.84 389.79 888.42 390.36 889.17 391.16L889.72 391.71C890.09 391.49 891.84 390.64 891.84 389.09ZM907.05 385.59C907.05 385.34 907.25 385.12 907.52 385.12L913.39 385.12C916.47 385.12 918.99 387.61 918.99 390.64C918.99 393.74 916.47 396.26 913.42 396.26L910.29 396.26L910.29 402.13C910.29 402.38 910.07 402.61 909.82 402.61L907.52 402.61C907.25 402.61 907.05 402.38 907.05 402.13L907.05 385.59ZM913.19 393.21C914.59 393.21 915.77 392.09 915.77 390.61C915.77 389.24 914.59 388.19 913.19 388.19L910.29 388.19L910.29 393.21L913.19 393.21ZM923.52 396.29C924.52 396.29 925.34 396.56 925.34 396.56C925.37 395.29 924.97 394.84 924.04 394.84C923.12 394.84 921.82 395.04 921.25 395.21C920.9 395.31 920.72 395.09 920.67 394.76L920.45 393.46C920.37 393.09 920.57 392.91 920.8 392.84C921 392.76 922.6 392.36 924.2 392.36C927.32 392.36 928.04 393.99 928.04 396.71L928.04 402.13C928.04 402.38 927.82 402.61 927.57 402.61L926.67 402.61C926.49 402.61 926.37 402.53 926.24 402.26L925.94 401.58C925.37 402.11 924.44 402.86 922.9 402.86C920.9 402.86 919.52 401.56 919.52 399.43C919.52 397.66 920.97 396.29 923.52 396.29ZM923.57 400.73C924.37 400.73 925.14 400.06 925.29 399.76L925.29 398.38C925.29 398.38 924.62 398.08 923.89 398.08C922.92 398.08 922.27 398.63 922.27 399.43C922.27 400.18 922.8 400.73 923.57 400.73ZM929.62 393.26C929.47 392.94 929.67 392.61 930.05 392.61L932.3 392.61C932.52 392.61 932.65 392.74 932.72 392.89L935.24 398.53L935.27 398.53L937.77 392.89C937.89 392.64 938.07 392.61 938.37 392.61L940.36 392.61C940.77 392.61 940.96 392.94 940.79 393.26L933.15 409.8C933.07 409.95 932.92 410.1 932.72 410.1L930.57 410.1C930.2 410.1 929.97 409.78 930.15 409.43L933.69 401.91L929.62 393.26ZM942.5 393.09C942.5 392.81 942.72 392.61 942.97 392.61L943.92 392.61C944.15 392.61 944.29 392.74 944.37 392.94L944.72 393.91C945.07 393.41 945.99 392.36 947.54 392.36C948.72 392.36 949.77 392.74 949.47 393.36L948.54 394.99C948.42 395.21 948.17 395.31 947.97 395.21C947.89 395.19 947.52 395.06 947.24 395.06C946.24 395.06 945.65 395.74 945.47 396.09L945.47 402.13C945.47 402.48 945.24 402.61 944.89 402.61L942.97 402.61C942.72 402.61 942.5 402.38 942.5 402.13L942.5 393.09ZM955.29 392.36C958.12 392.36 960.41 394.76 960.41 397.58C960.41 400.46 958.12 402.86 955.29 402.86C952.47 402.86 950.17 400.46 950.17 397.58C950.17 394.76 952.47 392.36 955.29 392.36ZM955.29 400.16C956.62 400.16 957.69 399.01 957.69 397.58C957.69 396.19 956.62 395.06 955.29 395.06C953.94 395.06 952.9 396.19 952.9 397.58C952.9 399.01 953.94 400.16 955.29 400.16ZM962.65 385.59C962.65 385.34 962.87 385.12 963.12 385.12L965.22 385.12C965.47 385.12 965.69 385.34 965.69 385.59L965.69 402.13C965.69 402.38 965.47 402.61 965.22 402.61L963.12 402.61C962.87 402.61 962.65 402.38 962.65 402.13L962.65 385.59ZM968.7 385.59C968.7 385.34 968.92 385.12 969.17 385.12L971.27 385.12C971.52 385.12 971.74 385.34 971.74 385.59L971.74 402.13C971.74 402.38 971.52 402.61 971.27 402.61L969.17 402.61C968.92 402.61 968.7 402.38 968.7 402.13L968.7 385.59ZM1176.19 377.6L1177.09 376.05C1177.29 375.7 1177.72 375.7 1177.94 375.87C1178.07 375.95 1180.09 377.42 1181.71 377.42C1183.01 377.42 1183.99 376.57 1183.99 375.5C1183.99 374.22 1182.91 373.35 1180.81 372.5C1178.47 371.55 1176.12 370.05 1176.12 367.1C1176.12 364.88 1177.77 362.31 1181.74 362.31C1184.29 362.31 1186.24 363.61 1186.74 363.98C1186.99 364.13 1187.06 364.56 1186.89 364.8L1185.94 366.23C1185.74 366.53 1185.36 366.73 1185.06 366.53C1184.86 366.4 1182.96 365.15 1181.59 365.15C1180.17 365.15 1179.39 366.1 1179.39 366.9C1179.39 368.08 1180.31 368.88 1182.34 369.7C1184.76 370.68 1187.56 372.13 1187.56 375.35C1187.56 377.92 1185.34 380.3 1181.81 380.3C1178.67 380.3 1176.82 378.82 1176.32 378.35C1176.09 378.12 1175.97 378 1176.19 377.6ZM1190.14 372.67L1189.29 372.67C1189.04 372.67 1188.84 372.45 1188.84 372.2L1188.84 370.53C1188.84 370.25 1189.04 370.05 1189.29 370.05L1190.14 370.05L1190.14 367.28C1190.14 367.03 1190.37 366.8 1190.62 366.8L1192.67 366.78C1192.92 366.78 1193.12 367 1193.12 367.25L1193.12 370.05L1195.31 370.05C1195.59 370.05 1195.79 370.25 1195.79 370.53L1195.79 372.2C1195.79 372.45 1195.59 372.67 1195.31 372.67L1193.12 372.67L1193.12 376.67C1193.12 377.37 1193.49 377.47 1193.89 377.47C1194.32 377.47 1194.84 377.3 1195.12 377.2C1195.39 377.1 1195.59 377.22 1195.66 377.47L1196.17 379.05C1196.26 379.3 1196.14 379.55 1195.89 379.65C1195.76 379.72 1194.14 380.3 1192.92 380.3C1190.99 380.3 1190.14 379.1 1190.14 377.07L1190.14 372.67ZM1202.59 369.8C1205.41 369.8 1207.71 372.2 1207.71 375.02C1207.71 377.9 1205.41 380.3 1202.59 380.3C1199.77 380.3 1197.47 377.9 1197.47 375.02C1197.47 372.2 1199.77 369.8 1202.59 369.8ZM1202.59 377.6C1203.91 377.6 1204.99 376.45 1204.99 375.02C1204.99 373.63 1203.91 372.5 1202.59 372.5C1201.24 372.5 1200.19 373.63 1200.19 375.02C1200.19 376.45 1201.24 377.6 1202.59 377.6ZM1214.49 369.8C1216.04 369.8 1217.24 370.43 1218.19 371.58C1218.36 371.8 1218.31 372.1 1218.06 372.28L1216.91 373.37C1216.69 373.57 1216.46 373.45 1216.29 373.3C1215.89 372.85 1215.27 372.5 1214.57 372.5C1213.22 372.5 1212.12 373.65 1212.12 375.05C1212.12 376.47 1213.19 377.6 1214.54 377.6C1215.61 377.6 1216.09 377.07 1216.54 376.65C1216.71 376.47 1216.96 376.42 1217.16 376.57L1218.24 377.5C1218.49 377.7 1218.59 377.95 1218.41 378.2C1217.56 379.52 1216.24 380.3 1214.47 380.3C1211.64 380.3 1209.17 378.05 1209.17 375.05C1209.17 372.1 1211.69 369.8 1214.49 369.8ZM1220.59 363.03C1220.59 362.78 1220.82 362.56 1221.07 362.56L1223.19 362.56C1223.44 362.56 1223.66 362.78 1223.66 363.03L1223.66 373.85L1227.11 370.35C1227.29 370.2 1227.46 370.05 1227.74 370.05L1230.01 370.05C1230.44 370.05 1230.59 370.5 1230.34 370.78L1226.61 374.57L1231.06 379.35C1231.31 379.62 1231.16 380.05 1230.74 380.05L1228.04 380.05L1227.61 379.85L1223.66 375.35L1223.66 379.57C1223.66 379.82 1223.44 380.05 1223.19 380.05L1221.07 380.05C1220.82 380.05 1220.59 379.82 1220.59 379.57L1220.59 363.03ZM1240.94 362.68C1240.96 362.48 1241.11 362.31 1241.39 362.31L1241.79 362.31C1241.99 362.31 1242.14 362.4 1242.21 362.56L1247.71 374.35L1247.79 374.35L1253.28 362.56C1253.36 362.4 1253.48 362.31 1253.71 362.31L1254.11 362.31C1254.38 362.31 1254.53 362.48 1254.56 362.68L1257.51 379.47C1257.58 379.82 1257.38 380.05 1257.06 380.05L1254.78 380.05C1254.56 380.05 1254.36 379.85 1254.31 379.67L1252.83 370.2L1252.76 370.2L1248.39 380.02C1248.34 380.17 1248.19 380.3 1247.96 380.3L1247.51 380.3C1247.29 380.3 1247.16 380.17 1247.09 380.02L1242.66 370.2L1242.59 370.2L1241.14 379.67C1241.11 379.85 1240.91 380.05 1240.69 380.05L1238.44 380.05C1238.11 380.05 1237.92 379.82 1237.97 379.47L1240.94 362.68ZM1263.19 373.72C1264.19 373.72 1265.01 374 1265.01 374C1265.04 372.73 1264.64 372.28 1263.71 372.28C1262.79 372.28 1261.49 372.47 1260.92 372.65C1260.57 372.75 1260.39 372.53 1260.34 372.2L1260.12 370.9C1260.04 370.53 1260.24 370.35 1260.47 370.28C1260.67 370.2 1262.26 369.8 1263.86 369.8C1266.99 369.8 1267.71 371.43 1267.71 374.15L1267.71 379.57C1267.71 379.82 1267.49 380.05 1267.24 380.05L1266.34 380.05C1266.16 380.05 1266.04 379.97 1265.91 379.7L1265.61 379.02C1265.04 379.55 1264.11 380.3 1262.57 380.3C1260.57 380.3 1259.19 379 1259.19 376.87C1259.19 375.1 1260.64 373.72 1263.19 373.72ZM1263.24 378.17C1264.04 378.17 1264.81 377.5 1264.96 377.2L1264.96 375.82C1264.96 375.82 1264.29 375.52 1263.56 375.52C1262.59 375.52 1261.94 376.07 1261.94 376.87C1261.94 377.62 1262.47 378.17 1263.24 378.17ZM1270.59 370.53C1270.59 370.25 1270.82 370.05 1271.07 370.05L1272.02 370.05C1272.24 370.05 1272.37 370.18 1272.44 370.35L1272.79 371.27C1273.17 370.88 1274.39 369.8 1276.31 369.8C1279.49 369.8 1280.76 372.17 1280.76 374.77L1280.76 379.57C1280.76 379.82 1280.54 380.05 1280.29 380.05L1278.24 380.05C1277.96 380.05 1277.76 379.82 1277.76 379.57L1277.76 374.62C1277.76 373.32 1277.09 372.5 1275.89 372.5C1274.59 372.5 1273.79 373.4 1273.54 374.07L1273.54 379.57C1273.54 379.92 1273.39 380.05 1272.91 380.05L1271.07 380.05C1270.82 380.05 1270.59 379.82 1270.59 379.57L1270.59 370.53ZM1286.84 373.72C1287.84 373.72 1288.66 374 1288.66 374C1288.69 372.73 1288.29 372.28 1287.36 372.28C1286.44 372.28 1285.14 372.47 1284.56 372.65C1284.21 372.75 1284.04 372.53 1283.99 372.2L1283.76 370.9C1283.69 370.53 1283.89 370.35 1284.11 370.28C1284.31 370.2 1285.91 369.8 1287.51 369.8C1290.64 369.8 1291.36 371.43 1291.36 374.15L1291.36 379.57C1291.36 379.82 1291.14 380.05 1290.89 380.05L1289.99 380.05C1289.81 380.05 1289.69 379.97 1289.56 379.7L1289.26 379.02C1288.69 379.55 1287.76 380.3 1286.21 380.3C1284.21 380.3 1282.84 379 1282.84 376.87C1282.84 375.1 1284.29 373.72 1286.84 373.72ZM1286.89 378.17C1287.69 378.17 1288.46 377.5 1288.61 377.2L1288.61 375.82C1288.61 375.82 1287.94 375.52 1287.21 375.52C1286.24 375.52 1285.59 376.07 1285.59 376.87C1285.59 377.62 1286.11 378.17 1286.89 378.17ZM1295.06 376.5C1295.06 376.5 1294.32 375.65 1294.32 374.15C1294.32 371.82 1296.19 369.8 1298.66 369.8L1303.21 369.8C1303.49 369.8 1303.69 370 1303.69 370.28L1303.69 371.1L1303.41 371.52L1302.01 371.97C1302.01 371.97 1303.01 372.75 1303.01 374.52C1303.01 376.5 1301.36 378.45 1298.74 378.45C1297.79 378.45 1297.14 378.25 1296.74 378.25C1296.39 378.25 1295.82 378.6 1295.82 379.2C1295.82 379.72 1296.26 380.05 1296.81 380.05L1300.01 380.05C1302.29 380.05 1304.14 381.35 1304.14 383.54C1304.14 385.84 1302.29 387.79 1298.66 387.79C1294.96 387.79 1293.56 385.97 1293.56 384.37C1293.56 382.87 1294.81 382.15 1295.06 382L1295.06 381.92C1294.64 381.8 1293.19 381.12 1293.19 379.3C1293.19 377.35 1295.06 376.5 1295.06 376.5ZM1298.64 385.29C1300.04 385.29 1300.96 384.67 1300.96 383.72C1300.96 383.27 1300.61 382.5 1299.14 382.5C1298.59 382.5 1298.04 382.52 1297.51 382.6C1297.21 382.7 1296.44 383.05 1296.44 383.82C1296.44 384.69 1297.29 385.29 1298.64 385.29ZM1298.74 376.07C1299.76 376.07 1300.46 375.32 1300.46 374.27C1300.46 373.22 1299.76 372.47 1298.74 372.47C1297.74 372.47 1296.99 373.22 1296.99 374.27C1296.99 375.32 1297.74 376.07 1298.74 376.07ZM1310.14 369.8C1312.71 369.8 1314.81 371.75 1314.81 374.45L1314.76 375.12C1314.74 375.37 1314.51 375.55 1314.29 375.55L1307.89 375.55C1307.96 376.57 1308.84 377.72 1310.29 377.72C1311.06 377.72 1311.79 377.42 1312.24 377.1C1312.49 376.95 1312.71 376.9 1312.89 377.1L1313.91 378.27C1314.09 378.45 1314.14 378.72 1313.89 378.92C1313.06 379.7 1311.79 380.3 1310.16 380.3C1307.16 380.3 1305.04 377.92 1305.04 375.05C1305.04 372.22 1307.16 369.8 1310.14 369.8ZM1311.89 373.8C1311.81 372.88 1311.01 372.1 1310.06 372.1C1309.06 372.1 1308.24 372.85 1308.11 373.8L1311.89 373.8ZM1316.92 370.53C1316.92 370.25 1317.14 370.05 1317.39 370.05L1318.31 370.05C1318.54 370.05 1318.69 370.18 1318.74 370.33L1319.09 371.27C1319.51 370.8 1320.66 369.8 1322.44 369.8C1323.86 369.8 1324.86 370.35 1325.69 371.35C1326.11 370.9 1327.41 369.8 1329.21 369.8C1332.41 369.8 1333.58 372.17 1333.58 374.8L1333.58 379.57C1333.58 379.82 1333.38 380.05 1333.11 380.05L1331.08 380.05C1330.81 380.05 1330.61 379.82 1330.61 379.57L1330.61 374.62C1330.61 373.32 1329.98 372.5 1328.73 372.5C1327.29 372.5 1326.64 373.55 1326.64 373.55C1326.64 373.55 1326.66 374.05 1326.66 374.5L1326.66 379.57C1326.66 379.82 1326.44 380.05 1326.19 380.05L1324.31 380.05C1324.04 380.05 1323.84 379.82 1323.84 379.57L1323.84 374.62C1323.84 373.32 1323.26 372.5 1321.99 372.5C1320.74 372.5 1320.14 373.4 1319.89 374.07L1319.89 379.57C1319.89 379.82 1319.66 380.05 1319.41 380.05L1317.39 380.05C1317.14 380.05 1316.92 379.82 1316.92 379.57L1316.92 370.53ZM1340.74 369.8C1343.31 369.8 1345.41 371.75 1345.41 374.45L1345.36 375.12C1345.34 375.37 1345.11 375.55 1344.89 375.55L1338.49 375.55C1338.56 376.57 1339.44 377.72 1340.89 377.72C1341.66 377.72 1342.39 377.42 1342.84 377.1C1343.09 376.95 1343.31 376.9 1343.49 377.1L1344.51 378.27C1344.69 378.45 1344.74 378.72 1344.49 378.92C1343.66 379.7 1342.39 380.3 1340.76 380.3C1337.76 380.3 1335.64 377.92 1335.64 375.05C1335.64 372.22 1337.76 369.8 1340.74 369.8ZM1342.49 373.8C1342.41 372.88 1341.61 372.1 1340.66 372.1C1339.66 372.1 1338.84 372.85 1338.71 373.8L1342.49 373.8ZM1347.51 370.53C1347.51 370.25 1347.74 370.05 1347.99 370.05L1348.94 370.05C1349.16 370.05 1349.29 370.18 1349.36 370.35L1349.71 371.27C1350.09 370.88 1351.31 369.8 1353.24 369.8C1356.41 369.8 1357.68 372.17 1357.68 374.77L1357.68 379.57C1357.68 379.82 1357.46 380.05 1357.21 380.05L1355.16 380.05C1354.89 380.05 1354.69 379.82 1354.69 379.57L1354.69 374.62C1354.69 373.32 1354.01 372.5 1352.81 372.5C1351.51 372.5 1350.71 373.4 1350.46 374.07L1350.46 379.57C1350.46 379.92 1350.31 380.05 1349.84 380.05L1347.99 380.05C1347.74 380.05 1347.51 379.82 1347.51 379.57L1347.51 370.53ZM1360.94 372.67L1360.09 372.67C1359.84 372.67 1359.64 372.45 1359.64 372.2L1359.64 370.53C1359.64 370.25 1359.84 370.05 1360.09 370.05L1360.94 370.05L1360.94 367.28C1360.94 367.03 1361.16 366.8 1361.41 366.8L1363.46 366.78C1363.71 366.78 1363.91 367 1363.91 367.25L1363.91 370.05L1366.11 370.05C1366.39 370.05 1366.59 370.25 1366.59 370.53L1366.59 372.2C1366.59 372.45 1366.39 372.67 1366.11 372.67L1363.91 372.67L1363.91 376.67C1363.91 377.37 1364.29 377.47 1364.69 377.47C1365.11 377.47 1365.64 377.3 1365.91 377.2C1366.19 377.1 1366.39 377.22 1366.46 377.47L1366.96 379.05C1367.06 379.3 1366.94 379.55 1366.69 379.65C1366.56 379.72 1364.94 380.3 1363.71 380.3C1361.79 380.3 1360.94 379.1 1360.94 377.07L1360.94 372.67Z" />
		<path id="Path 9" fill-rule="evenodd" class="shp0" d="M1210.57 400.58L1210.57 400.53L1210.04 399.95C1209.04 398.9 1208.32 397.83 1208.34 396.35C1208.34 394.45 1209.91 392.31 1213.06 392.31C1215.86 392.31 1217.79 394.13 1217.79 396.38C1217.79 398.95 1215.24 400.48 1214.74 400.93L1217.61 403.82C1218.01 403.03 1218.34 402 1218.51 401.05C1218.61 400.53 1218.76 400.25 1219.34 400.43L1220.71 400.83C1221.36 401 1221.18 401.55 1221.14 401.8C1220.71 403.6 1219.91 405.17 1219.59 405.77L1221.81 407.87C1222.11 408.17 1222.36 408.45 1221.76 409.02L1220.74 410.07C1220.44 410.35 1220.04 410.4 1219.64 410L1217.84 408.17C1217.39 408.7 1215.64 410.3 1212.39 410.3C1209.21 410.3 1207.12 408.15 1207.12 405.6C1207.12 402.3 1210.12 400.85 1210.57 400.58ZM1212.71 407.62C1214.59 407.62 1215.56 406.57 1215.94 406.15L1212.21 402.2C1211.81 402.45 1210.09 403.28 1210.09 405.27C1210.09 406.65 1211.24 407.62 1212.71 407.62ZM1215.09 396.53C1215.09 395.58 1214.26 394.66 1212.96 394.66C1211.81 394.66 1211.11 395.43 1211.11 396.35C1211.09 397.23 1211.66 397.8 1212.41 398.6L1212.96 399.15C1213.34 398.93 1215.09 398.08 1215.09 396.53ZM1230.29 393.03C1230.29 392.78 1230.49 392.56 1230.77 392.56L1236.64 392.56C1239.71 392.56 1242.24 395.05 1242.24 398.08C1242.24 401.18 1239.71 403.7 1236.66 403.7L1233.54 403.7L1233.54 409.57C1233.54 409.82 1233.32 410.05 1233.06 410.05L1230.77 410.05C1230.49 410.05 1230.29 409.82 1230.29 409.57L1230.29 393.03ZM1236.44 400.65C1237.84 400.65 1239.01 399.53 1239.01 398.05C1239.01 396.68 1237.84 395.63 1236.44 395.63L1233.54 395.63L1233.54 400.65L1236.44 400.65ZM1243.57 400.53C1243.57 400.25 1243.79 400.05 1244.04 400.05L1246.09 400.05C1246.34 400.05 1246.57 400.25 1246.57 400.53L1246.57 405.45C1246.57 406.77 1247.24 407.6 1248.39 407.6C1249.44 407.6 1250.24 406.62 1250.39 405.72L1250.39 400.53C1250.39 400.15 1250.54 400.05 1250.94 400.05L1252.84 400.05C1253.09 400.05 1253.31 400.25 1253.31 400.53L1253.31 409.57C1253.31 409.82 1253.09 410.05 1252.84 410.05L1251.91 410.05C1251.66 410.05 1251.51 409.87 1251.44 409.67L1251.14 408.85C1250.69 409.25 1249.76 410.3 1247.79 410.3C1244.69 410.3 1243.57 407.92 1243.57 405.37L1243.57 400.53ZM1256.32 400.53C1256.32 400.25 1256.54 400.05 1256.79 400.05L1257.74 400.05C1257.97 400.05 1258.12 400.18 1258.19 400.38L1258.54 401.35C1258.89 400.85 1259.81 399.8 1261.36 399.8C1262.54 399.8 1263.59 400.18 1263.29 400.8L1262.36 402.42C1262.24 402.65 1261.99 402.75 1261.79 402.65C1261.71 402.62 1261.34 402.5 1261.06 402.5C1260.06 402.5 1259.46 403.18 1259.29 403.53L1259.29 409.57C1259.29 409.92 1259.07 410.05 1258.72 410.05L1256.79 410.05C1256.54 410.05 1256.32 409.82 1256.32 409.57L1256.32 400.53ZM1269.29 399.8C1270.84 399.8 1272.04 400.43 1272.99 401.58C1273.16 401.8 1273.11 402.1 1272.86 402.28L1271.71 403.38C1271.49 403.57 1271.26 403.45 1271.09 403.3C1270.69 402.85 1270.06 402.5 1269.36 402.5C1268.01 402.5 1266.91 403.65 1266.91 405.05C1266.91 406.47 1267.99 407.6 1269.34 407.6C1270.41 407.6 1270.89 407.08 1271.34 406.65C1271.51 406.47 1271.76 406.42 1271.96 406.57L1273.04 407.5C1273.29 407.7 1273.39 407.95 1273.21 408.2C1272.36 409.52 1271.04 410.3 1269.26 410.3C1266.44 410.3 1263.96 408.05 1263.96 405.05C1263.96 402.1 1266.49 399.8 1269.29 399.8ZM1275.39 393.03C1275.39 392.78 1275.61 392.56 1275.86 392.56L1277.99 392.56C1278.24 392.56 1278.46 392.78 1278.46 393.03L1278.46 400.63C1278.96 400.25 1279.94 399.8 1281.11 399.8C1284.29 399.8 1285.59 402.25 1285.59 404.77L1285.59 409.57C1285.59 409.82 1285.36 410.05 1285.11 410.05L1283.09 410.05C1282.81 410.05 1282.61 409.82 1282.61 409.57L1282.61 404.75C1282.61 403.38 1281.84 402.5 1280.64 402.5C1279.49 402.5 1278.71 403.25 1278.46 404.27L1278.46 409.57C1278.46 409.85 1278.31 410.05 1277.94 410.05L1275.86 410.05C1275.61 410.05 1275.39 409.82 1275.39 409.57L1275.39 393.03ZM1291.66 403.72C1292.66 403.72 1293.49 404 1293.49 404C1293.51 402.73 1293.11 402.28 1292.19 402.28C1291.26 402.28 1289.97 402.48 1289.39 402.65C1289.04 402.75 1288.87 402.52 1288.82 402.2L1288.59 400.9C1288.52 400.53 1288.72 400.35 1288.94 400.28C1289.14 400.2 1290.74 399.8 1292.34 399.8C1295.46 399.8 1296.19 401.43 1296.19 404.15L1296.19 409.57C1296.19 409.82 1295.96 410.05 1295.71 410.05L1294.81 410.05C1294.64 410.05 1294.51 409.97 1294.39 409.7L1294.09 409.02C1293.51 409.55 1292.59 410.3 1291.04 410.3C1289.04 410.3 1287.67 409 1287.67 406.87C1287.67 405.1 1289.12 403.72 1291.66 403.72ZM1291.71 408.17C1292.51 408.17 1293.29 407.5 1293.44 407.2L1293.44 405.82C1293.44 405.82 1292.76 405.52 1292.04 405.52C1291.06 405.52 1290.42 406.07 1290.42 406.87C1290.42 407.62 1290.94 408.17 1291.71 408.17ZM1298.52 408.85L1299.19 407.5C1299.29 407.25 1299.54 407.2 1299.77 407.32C1299.77 407.32 1300.89 407.92 1302.04 407.92C1302.54 407.92 1302.89 407.72 1302.89 407.3C1302.89 406.85 1302.54 406.57 1301.21 406.05C1299.29 405.3 1298.39 404.27 1298.39 402.75C1298.39 401.23 1299.52 399.8 1302.07 399.8C1303.54 399.8 1304.61 400.23 1305.14 400.58C1305.36 400.73 1305.49 401 1305.36 401.25L1304.74 402.52C1304.61 402.75 1304.34 402.77 1304.14 402.7C1304.14 402.7 1303.01 402.17 1302.07 402.17C1301.46 402.17 1301.21 402.42 1301.21 402.75C1301.21 403.2 1301.66 403.35 1302.59 403.72C1304.51 404.47 1305.96 405.3 1305.96 407.25C1305.96 408.9 1304.51 410.3 1301.99 410.3C1300.34 410.3 1299.19 409.77 1298.67 409.37C1298.52 409.25 1298.42 409.05 1298.52 408.85ZM1308.16 400.53C1308.16 400.25 1308.39 400.05 1308.64 400.05L1310.71 400.05C1310.96 400.05 1311.19 400.25 1311.19 400.53L1311.19 409.57C1311.19 409.82 1310.96 410.05 1310.71 410.05L1308.64 410.05C1308.39 410.05 1308.16 409.82 1308.16 409.57L1308.16 400.53ZM1307.94 394.78C1307.94 393.83 1308.69 393.06 1309.64 393.06C1310.61 393.06 1311.39 393.83 1311.39 394.78C1311.39 395.73 1310.61 396.51 1309.64 396.51C1308.69 396.51 1307.94 395.73 1307.94 394.78ZM1314.19 400.53C1314.19 400.25 1314.41 400.05 1314.66 400.05L1315.61 400.05C1315.84 400.05 1315.96 400.18 1316.04 400.35L1316.39 401.28C1316.76 400.88 1317.99 399.8 1319.91 399.8C1323.09 399.8 1324.36 402.17 1324.36 404.77L1324.36 409.57C1324.36 409.82 1324.14 410.05 1323.89 410.05L1321.84 410.05C1321.56 410.05 1321.36 409.82 1321.36 409.57L1321.36 404.62C1321.36 403.32 1320.69 402.5 1319.49 402.5C1318.19 402.5 1317.39 403.4 1317.14 404.07L1317.14 409.57C1317.14 409.92 1316.99 410.05 1316.51 410.05L1314.66 410.05C1314.41 410.05 1314.19 409.82 1314.19 409.57L1314.19 400.53ZM1327.99 406.5C1327.99 406.5 1327.24 405.65 1327.24 404.15C1327.24 401.82 1329.11 399.8 1331.59 399.8L1336.14 399.8C1336.41 399.8 1336.61 400 1336.61 400.28L1336.61 401.1L1336.34 401.53L1334.94 401.98C1334.94 401.98 1335.94 402.75 1335.94 404.52C1335.94 406.5 1334.29 408.45 1331.66 408.45C1330.71 408.45 1330.06 408.25 1329.66 408.25C1329.31 408.25 1328.74 408.6 1328.74 409.2C1328.74 409.72 1329.19 410.05 1329.74 410.05L1332.94 410.05C1335.21 410.05 1337.06 411.35 1337.06 413.54C1337.06 415.84 1335.21 417.79 1331.59 417.79C1327.89 417.79 1326.49 415.97 1326.49 414.37C1326.49 412.87 1327.74 412.15 1327.99 412L1327.99 411.92C1327.56 411.8 1326.12 411.12 1326.12 409.3C1326.12 407.35 1327.99 406.5 1327.99 406.5ZM1331.56 415.29C1332.96 415.29 1333.89 414.67 1333.89 413.72C1333.89 413.27 1333.54 412.5 1332.06 412.5C1331.51 412.5 1330.96 412.52 1330.44 412.6C1330.14 412.7 1329.36 413.05 1329.36 413.82C1329.36 414.69 1330.21 415.29 1331.56 415.29ZM1331.66 406.07C1332.69 406.07 1333.39 405.32 1333.39 404.27C1333.39 403.22 1332.69 402.48 1331.66 402.48C1330.66 402.48 1329.91 403.22 1329.91 404.27C1329.91 405.32 1330.66 406.07 1331.66 406.07ZM1545.15 363.03C1545.15 362.78 1545.38 362.56 1545.63 362.56L1547.95 362.56C1548.22 362.56 1548.42 362.78 1548.42 363.03L1548.42 369.65L1556.57 369.65L1556.57 363.03C1556.57 362.78 1556.77 362.56 1557.04 362.56L1559.34 362.56C1559.59 362.56 1559.82 362.78 1559.82 363.03L1559.82 379.57C1559.82 379.82 1559.59 380.05 1559.34 380.05L1557.04 380.05C1556.77 380.05 1556.57 379.82 1556.57 379.57L1556.57 372.67L1548.42 372.67L1548.42 379.57C1548.42 379.82 1548.22 380.05 1547.95 380.05L1545.63 380.05C1545.38 380.05 1545.15 379.82 1545.15 379.57L1545.15 363.03ZM1567.42 369.8C1570.25 369.8 1572.54 372.2 1572.54 375.02C1572.54 377.9 1570.25 380.3 1567.42 380.3C1564.6 380.3 1562.3 377.9 1562.3 375.02C1562.3 372.2 1564.6 369.8 1567.42 369.8ZM1567.42 377.6C1568.75 377.6 1569.82 376.45 1569.82 375.02C1569.82 373.63 1568.75 372.5 1567.42 372.5C1566.07 372.5 1565.02 373.63 1565.02 375.02C1565.02 376.45 1566.07 377.6 1567.42 377.6ZM1574.6 370.53C1574.6 370.25 1574.82 370.05 1575.08 370.05L1577.12 370.05C1577.37 370.05 1577.6 370.25 1577.6 370.53L1577.6 375.45C1577.6 376.77 1578.27 377.6 1579.42 377.6C1580.47 377.6 1581.27 376.62 1581.42 375.72L1581.42 370.53C1581.42 370.15 1581.57 370.05 1581.97 370.05L1583.87 370.05C1584.12 370.05 1584.35 370.25 1584.35 370.53L1584.35 379.57C1584.35 379.82 1584.12 380.05 1583.87 380.05L1582.95 380.05C1582.7 380.05 1582.54 379.87 1582.47 379.67L1582.17 378.85C1581.72 379.25 1580.8 380.3 1578.82 380.3C1575.73 380.3 1574.6 377.92 1574.6 375.37L1574.6 370.53ZM1586.8 378.85L1587.47 377.5C1587.58 377.25 1587.83 377.2 1588.05 377.32C1588.05 377.32 1589.17 377.92 1590.32 377.92C1590.82 377.92 1591.17 377.72 1591.17 377.3C1591.17 376.85 1590.82 376.57 1589.5 376.05C1587.58 375.3 1586.68 374.27 1586.68 372.75C1586.68 371.23 1587.8 369.8 1590.35 369.8C1591.82 369.8 1592.9 370.22 1593.42 370.57C1593.65 370.73 1593.77 371 1593.65 371.25L1593.02 372.53C1592.9 372.75 1592.62 372.77 1592.42 372.7C1592.42 372.7 1591.3 372.17 1590.35 372.17C1589.75 372.17 1589.5 372.42 1589.5 372.75C1589.5 373.2 1589.95 373.35 1590.87 373.72C1592.8 374.47 1594.25 375.3 1594.25 377.25C1594.25 378.9 1592.8 380.3 1590.27 380.3C1588.62 380.3 1587.47 379.77 1586.95 379.37C1586.8 379.25 1586.7 379.05 1586.8 378.85ZM1600.8 369.8C1603.37 369.8 1605.47 371.75 1605.47 374.45L1605.42 375.12C1605.4 375.37 1605.17 375.55 1604.95 375.55L1598.55 375.55C1598.62 376.57 1599.5 377.72 1600.95 377.72C1601.72 377.72 1602.45 377.42 1602.9 377.1C1603.15 376.95 1603.37 376.9 1603.55 377.1L1604.57 378.27C1604.75 378.45 1604.8 378.72 1604.55 378.92C1603.72 379.7 1602.45 380.3 1600.82 380.3C1597.82 380.3 1595.7 377.92 1595.7 375.05C1595.7 372.22 1597.82 369.8 1600.8 369.8ZM1602.55 373.8C1602.47 372.88 1601.67 372.1 1600.72 372.1C1599.72 372.1 1598.9 372.85 1598.77 373.8L1602.55 373.8ZM1607.57 363.03C1607.57 362.78 1607.8 362.56 1608.05 362.56L1610.17 362.56C1610.42 362.56 1610.65 362.78 1610.65 363.03L1610.65 373.85L1614.1 370.35C1614.27 370.2 1614.45 370.05 1614.72 370.05L1617 370.05C1617.42 370.05 1617.57 370.5 1617.32 370.78L1613.6 374.57L1618.04 379.35C1618.3 379.62 1618.14 380.05 1617.72 380.05L1615.02 380.05L1614.6 379.85L1610.65 375.35L1610.65 379.57C1610.65 379.82 1610.42 380.05 1610.17 380.05L1608.05 380.05C1607.8 380.05 1607.57 379.82 1607.57 379.57L1607.57 363.03ZM1623.95 369.8C1626.52 369.8 1628.62 371.75 1628.62 374.45L1628.57 375.12C1628.55 375.37 1628.32 375.55 1628.1 375.55L1621.7 375.55C1621.77 376.57 1622.65 377.72 1624.1 377.72C1624.87 377.72 1625.6 377.42 1626.04 377.1C1626.29 376.95 1626.52 376.9 1626.7 377.1L1627.72 378.27C1627.89 378.45 1627.94 378.72 1627.69 378.92C1626.87 379.7 1625.6 380.3 1623.97 380.3C1620.97 380.3 1618.85 377.92 1618.85 375.05C1618.85 372.22 1620.97 369.8 1623.95 369.8ZM1625.69 373.8C1625.62 372.88 1624.82 372.1 1623.87 372.1C1622.87 372.1 1622.05 372.85 1621.92 373.8L1625.69 373.8ZM1635.07 369.8C1637.65 369.8 1639.74 371.75 1639.74 374.45L1639.69 375.12C1639.67 375.37 1639.44 375.55 1639.22 375.55L1632.82 375.55C1632.9 376.57 1633.77 377.72 1635.22 377.72C1636 377.72 1636.72 377.42 1637.17 377.1C1637.42 376.95 1637.65 376.9 1637.82 377.1L1638.84 378.27C1639.02 378.45 1639.07 378.72 1638.82 378.92C1638 379.7 1636.72 380.3 1635.1 380.3C1632.1 380.3 1629.97 377.92 1629.97 375.05C1629.97 372.22 1632.1 369.8 1635.07 369.8ZM1636.82 373.8C1636.75 372.88 1635.95 372.1 1635 372.1C1634 372.1 1633.17 372.85 1633.05 373.8L1636.82 373.8ZM1644.92 387.07C1644.92 387.37 1644.77 387.54 1644.32 387.54L1642.32 387.54C1642.07 387.54 1641.85 387.32 1641.85 387.07L1641.85 370.53C1641.85 370.25 1642.07 370.05 1642.32 370.05L1643.3 370.05C1643.47 370.05 1643.65 370.15 1643.72 370.35L1644.05 371.17C1644.42 370.68 1645.65 369.8 1647.27 369.8C1650.02 369.8 1652.09 372.17 1652.09 375.05C1652.09 378 1649.84 380.3 1647.15 380.3C1646.17 380.3 1645.27 379.95 1644.92 379.75L1644.92 387.07ZM1646.75 377.6C1648.15 377.6 1649.17 376.45 1649.17 375.05C1649.17 373.65 1648.22 372.5 1646.85 372.5C1645.57 372.5 1644.95 373.5 1644.8 374.02L1644.8 377.02C1644.8 377.02 1645.5 377.6 1646.75 377.6ZM1654.35 370.53C1654.35 370.25 1654.57 370.05 1654.82 370.05L1656.9 370.05C1657.15 370.05 1657.37 370.25 1657.37 370.53L1657.37 379.57C1657.37 379.82 1657.15 380.05 1656.9 380.05L1654.82 380.05C1654.57 380.05 1654.35 379.82 1654.35 379.57L1654.35 370.53ZM1654.12 364.78C1654.12 363.83 1654.87 363.06 1655.82 363.06C1656.8 363.06 1657.57 363.83 1657.57 364.78C1657.57 365.73 1656.8 366.5 1655.82 366.5C1654.87 366.5 1654.12 365.73 1654.12 364.78ZM1660.37 370.53C1660.37 370.25 1660.6 370.05 1660.85 370.05L1661.8 370.05C1662.02 370.05 1662.15 370.18 1662.22 370.35L1662.58 371.27C1662.95 370.88 1664.17 369.8 1666.1 369.8C1669.27 369.8 1670.54 372.17 1670.54 374.77L1670.54 379.57C1670.54 379.82 1670.32 380.05 1670.07 380.05L1668.02 380.05C1667.75 380.05 1667.55 379.82 1667.55 379.57L1667.55 374.62C1667.55 373.32 1666.87 372.5 1665.67 372.5C1664.37 372.5 1663.57 373.4 1663.32 374.07L1663.32 379.57C1663.32 379.92 1663.17 380.05 1662.7 380.05L1660.85 380.05C1660.6 380.05 1660.37 379.82 1660.37 379.57L1660.37 370.53ZM1674.17 376.5C1674.17 376.5 1673.43 375.65 1673.43 374.15C1673.43 371.82 1675.3 369.8 1677.77 369.8L1682.32 369.8C1682.59 369.8 1682.79 370 1682.79 370.28L1682.79 371.1L1682.52 371.52L1681.12 371.97C1681.12 371.97 1682.12 372.75 1682.12 374.52C1682.12 376.5 1680.47 378.45 1677.85 378.45C1676.9 378.45 1676.25 378.25 1675.85 378.25C1675.5 378.25 1674.92 378.6 1674.92 379.2C1674.92 379.72 1675.37 380.05 1675.92 380.05L1679.12 380.05C1681.39 380.05 1683.24 381.35 1683.24 383.54C1683.24 385.84 1681.39 387.79 1677.77 387.79C1674.07 387.79 1672.67 385.97 1672.67 384.37C1672.67 382.87 1673.92 382.15 1674.17 382L1674.17 381.92C1673.75 381.8 1672.3 381.12 1672.3 379.3C1672.3 377.35 1674.17 376.5 1674.17 376.5ZM1677.75 385.29C1679.15 385.29 1680.07 384.67 1680.07 383.72C1680.07 383.27 1679.72 382.5 1678.25 382.5C1677.7 382.5 1677.15 382.52 1676.62 382.6C1676.32 382.7 1675.55 383.05 1675.55 383.82C1675.55 384.69 1676.4 385.29 1677.75 385.29ZM1677.85 376.07C1678.87 376.07 1679.57 375.32 1679.57 374.27C1679.57 373.22 1678.87 372.47 1677.85 372.47C1676.85 372.47 1676.1 373.22 1676.1 374.27C1676.1 375.32 1676.85 376.07 1677.85 376.07ZM1694.22 370.57L1694.22 370.53L1693.7 369.95C1692.7 368.9 1691.97 367.83 1692 366.35C1692 364.46 1693.57 362.31 1696.72 362.31C1699.52 362.31 1701.44 364.13 1701.44 366.38C1701.44 368.95 1698.89 370.47 1698.4 370.92L1701.27 373.82C1701.67 373.02 1701.99 372 1702.17 371.05C1702.27 370.53 1702.42 370.25 1702.99 370.43L1704.37 370.82C1705.02 371 1704.84 371.55 1704.79 371.8C1704.37 373.6 1703.57 375.17 1703.24 375.77L1705.46 377.87C1705.77 378.17 1706.01 378.45 1705.42 379.02L1704.39 380.07C1704.09 380.35 1703.69 380.4 1703.29 380L1701.49 378.17C1701.04 378.7 1699.29 380.3 1696.05 380.3C1692.87 380.3 1690.78 378.15 1690.78 375.6C1690.78 372.3 1693.77 370.85 1694.22 370.57ZM1696.37 377.62C1698.25 377.62 1699.22 376.57 1699.59 376.15L1695.87 372.2C1695.47 372.45 1693.75 373.27 1693.75 375.27C1693.75 376.65 1694.9 377.62 1696.37 377.62ZM1698.75 366.53C1698.75 365.58 1697.92 364.66 1696.62 364.66C1695.47 364.66 1694.77 365.43 1694.77 366.35C1694.75 367.23 1695.32 367.8 1696.07 368.6L1696.62 369.15C1697 368.93 1698.75 368.08 1698.75 366.53ZM1531.26 393.03C1531.26 392.78 1531.49 392.56 1531.74 392.56L1534.06 392.56C1534.34 392.56 1534.54 392.78 1534.54 393.03L1534.54 399.65L1542.68 399.65L1542.68 393.03C1542.68 392.78 1542.88 392.56 1543.15 392.56L1545.45 392.56C1545.7 392.56 1545.93 392.78 1545.93 393.03L1545.93 409.57C1545.93 409.82 1545.7 410.05 1545.45 410.05L1543.15 410.05C1542.88 410.05 1542.68 409.82 1542.68 409.57L1542.68 402.68L1534.54 402.68L1534.54 409.57C1534.54 409.82 1534.34 410.05 1534.06 410.05L1531.74 410.05C1531.49 410.05 1531.26 409.82 1531.26 409.57L1531.26 393.03Z" />
		<path id="Path 10" fill-rule="evenodd" class="shp0" d="M1553.54 399.8C1556.36 399.8 1558.66 402.2 1558.66 405.02C1558.66 407.9 1556.36 410.3 1553.54 410.3C1550.71 410.3 1548.41 407.9 1548.41 405.02C1548.41 402.2 1550.71 399.8 1553.54 399.8ZM1553.54 407.6C1554.86 407.6 1555.93 406.45 1555.93 405.02C1555.93 403.63 1554.86 402.5 1553.54 402.5C1552.19 402.5 1551.14 403.63 1551.14 405.02C1551.14 406.45 1552.19 407.6 1553.54 407.6ZM1561.41 402.68L1560.56 402.68C1560.31 402.68 1560.11 402.45 1560.11 402.2L1560.11 400.53C1560.11 400.25 1560.31 400.05 1560.56 400.05L1561.41 400.05L1561.41 397.28C1561.41 397.03 1561.64 396.8 1561.89 396.8L1563.94 396.78C1564.19 396.78 1564.39 397 1564.39 397.25L1564.39 400.05L1566.58 400.05C1566.86 400.05 1567.06 400.25 1567.06 400.53L1567.06 402.2C1567.06 402.45 1566.86 402.68 1566.58 402.68L1564.39 402.68L1564.39 406.67C1564.39 407.37 1564.76 407.47 1565.16 407.47C1565.59 407.47 1566.11 407.3 1566.39 407.2C1566.66 407.1 1566.86 407.22 1566.93 407.47L1567.44 409.05C1567.53 409.3 1567.41 409.55 1567.16 409.65C1567.03 409.72 1565.41 410.3 1564.19 410.3C1562.26 410.3 1561.41 409.1 1561.41 407.08L1561.41 402.68ZM1573.86 399.8C1576.43 399.8 1578.53 401.75 1578.53 404.45L1578.48 405.12C1578.46 405.37 1578.23 405.55 1578.01 405.55L1571.61 405.55C1571.69 406.57 1572.56 407.72 1574.01 407.72C1574.78 407.72 1575.51 407.42 1575.96 407.1C1576.21 406.95 1576.43 406.9 1576.61 407.1L1577.63 408.27C1577.81 408.45 1577.86 408.72 1577.61 408.92C1576.78 409.7 1575.51 410.3 1573.88 410.3C1570.89 410.3 1568.76 407.92 1568.76 405.05C1568.76 402.23 1570.89 399.8 1573.86 399.8ZM1575.61 403.8C1575.53 402.87 1574.73 402.1 1573.78 402.1C1572.79 402.1 1571.96 402.85 1571.84 403.8L1575.61 403.8ZM1580.64 393.03C1580.64 392.78 1580.86 392.56 1581.11 392.56L1583.21 392.56C1583.46 392.56 1583.68 392.78 1583.68 393.03L1583.68 409.57C1583.68 409.82 1583.46 410.05 1583.21 410.05L1581.11 410.05C1580.86 410.05 1580.64 409.82 1580.64 409.57L1580.64 393.03ZM1594.81 392.68C1594.83 392.48 1594.98 392.31 1595.26 392.31L1595.66 392.31C1595.86 392.31 1596.01 392.41 1596.08 392.56L1601.58 404.35L1601.65 404.35L1607.15 392.56C1607.23 392.41 1607.35 392.31 1607.58 392.31L1607.98 392.31C1608.25 392.31 1608.4 392.48 1608.43 392.68L1611.38 409.47C1611.45 409.82 1611.25 410.05 1610.93 410.05L1608.65 410.05C1608.43 410.05 1608.23 409.85 1608.18 409.67L1606.7 400.2L1606.63 400.2L1602.25 410.02C1602.2 410.17 1602.06 410.3 1601.83 410.3L1601.38 410.3C1601.16 410.3 1601.03 410.17 1600.95 410.02L1596.53 400.2L1596.46 400.2L1595.01 409.67C1594.98 409.85 1594.78 410.05 1594.56 410.05L1592.31 410.05C1591.99 410.05 1591.79 409.82 1591.84 409.47L1594.81 392.68ZM1617.06 403.72C1618.06 403.72 1618.88 404 1618.88 404C1618.91 402.73 1618.51 402.28 1617.59 402.28C1616.66 402.28 1615.36 402.48 1614.79 402.65C1614.44 402.75 1614.26 402.52 1614.21 402.2L1613.99 400.9C1613.91 400.53 1614.11 400.35 1614.34 400.28C1614.54 400.2 1616.14 399.8 1617.73 399.8C1620.86 399.8 1621.58 401.43 1621.58 404.15L1621.58 409.57C1621.58 409.82 1621.36 410.05 1621.11 410.05L1620.21 410.05C1620.03 410.05 1619.91 409.97 1619.78 409.7L1619.48 409.02C1618.91 409.55 1617.98 410.3 1616.44 410.3C1614.44 410.3 1613.06 409 1613.06 406.87C1613.06 405.1 1614.51 403.72 1617.06 403.72ZM1617.11 408.17C1617.91 408.17 1618.68 407.5 1618.83 407.2L1618.83 405.82C1618.83 405.82 1618.16 405.52 1617.44 405.52C1616.46 405.52 1615.81 406.07 1615.81 406.87C1615.81 407.62 1616.34 408.17 1617.11 408.17ZM1624.46 400.53C1624.46 400.25 1624.69 400.05 1624.94 400.05L1627.01 400.05C1627.26 400.05 1627.49 400.25 1627.49 400.53L1627.49 409.57C1627.49 409.82 1627.26 410.05 1627.01 410.05L1624.94 410.05C1624.69 410.05 1624.46 409.82 1624.46 409.57L1624.46 400.53ZM1624.24 394.78C1624.24 393.83 1624.99 393.06 1625.94 393.06C1626.91 393.06 1627.68 393.83 1627.68 394.78C1627.68 395.73 1626.91 396.51 1625.94 396.51C1624.99 396.51 1624.24 395.73 1624.24 394.78ZM1630.49 400.53C1630.49 400.25 1630.71 400.05 1630.96 400.05L1631.91 400.05C1632.13 400.05 1632.26 400.18 1632.34 400.35L1632.69 401.28C1633.06 400.88 1634.28 399.8 1636.21 399.8C1639.38 399.8 1640.65 402.17 1640.65 404.77L1640.65 409.57C1640.65 409.82 1640.43 410.05 1640.18 410.05L1638.13 410.05C1637.86 410.05 1637.66 409.82 1637.66 409.57L1637.66 404.62C1637.66 403.32 1636.98 402.5 1635.78 402.5C1634.48 402.5 1633.68 403.4 1633.43 404.07L1633.43 409.57C1633.43 409.92 1633.28 410.05 1632.81 410.05L1630.96 410.05C1630.71 410.05 1630.49 409.82 1630.49 409.57L1630.49 400.53ZM1643.91 402.68L1643.06 402.68C1642.81 402.68 1642.61 402.45 1642.61 402.2L1642.61 400.53C1642.61 400.25 1642.81 400.05 1643.06 400.05L1643.91 400.05L1643.91 397.28C1643.91 397.03 1644.14 396.8 1644.39 396.8L1646.43 396.78C1646.69 396.78 1646.88 397 1646.88 397.25L1646.88 400.05L1649.08 400.05C1649.36 400.05 1649.56 400.25 1649.56 400.53L1649.56 402.2C1649.56 402.45 1649.36 402.68 1649.08 402.68L1646.88 402.68L1646.88 406.67C1646.88 407.37 1647.26 407.47 1647.66 407.47C1648.08 407.47 1648.61 407.3 1648.88 407.2C1649.16 407.1 1649.36 407.22 1649.43 407.47L1649.93 409.05C1650.03 409.3 1649.91 409.55 1649.66 409.65C1649.53 409.72 1647.91 410.3 1646.69 410.3C1644.76 410.3 1643.91 409.1 1643.91 407.08L1643.91 402.68ZM1656.36 399.8C1658.93 399.8 1661.03 401.75 1661.03 404.45L1660.98 405.12C1660.96 405.37 1660.73 405.55 1660.5 405.55L1654.11 405.55C1654.18 406.57 1655.06 407.72 1656.51 407.72C1657.28 407.72 1658.01 407.42 1658.46 407.1C1658.71 406.95 1658.93 406.9 1659.11 407.1L1660.13 408.27C1660.31 408.45 1660.36 408.72 1660.11 408.92C1659.28 409.7 1658.01 410.3 1656.38 410.3C1653.38 410.3 1651.26 407.92 1651.26 405.05C1651.26 402.23 1653.38 399.8 1656.36 399.8ZM1658.11 403.8C1658.03 402.87 1657.23 402.1 1656.28 402.1C1655.28 402.1 1654.46 402.85 1654.33 403.8L1658.11 403.8ZM1663.14 400.53C1663.14 400.25 1663.36 400.05 1663.61 400.05L1664.56 400.05C1664.78 400.05 1664.91 400.18 1664.99 400.35L1665.34 401.28C1665.71 400.88 1666.93 399.8 1668.86 399.8C1672.03 399.8 1673.3 402.17 1673.3 404.77L1673.3 409.57C1673.3 409.82 1673.08 410.05 1672.83 410.05L1670.78 410.05C1670.51 410.05 1670.31 409.82 1670.31 409.57L1670.31 404.62C1670.31 403.32 1669.63 402.5 1668.43 402.5C1667.13 402.5 1666.33 403.4 1666.08 404.07L1666.08 409.57C1666.08 409.92 1665.93 410.05 1665.46 410.05L1663.61 410.05C1663.36 410.05 1663.14 409.82 1663.14 409.57L1663.14 400.53ZM1679.38 403.72C1680.38 403.72 1681.21 404 1681.21 404C1681.23 402.73 1680.83 402.28 1679.91 402.28C1678.98 402.28 1677.68 402.48 1677.11 402.65C1676.76 402.75 1676.58 402.52 1676.54 402.2L1676.31 400.9C1676.23 400.53 1676.44 400.35 1676.66 400.28C1676.86 400.2 1678.46 399.8 1680.06 399.8C1683.18 399.8 1683.91 401.43 1683.91 404.15L1683.91 409.57C1683.91 409.82 1683.68 410.05 1683.43 410.05L1682.53 410.05C1682.36 410.05 1682.23 409.97 1682.11 409.7L1681.81 409.02C1681.23 409.55 1680.31 410.3 1678.76 410.3C1676.76 410.3 1675.39 409 1675.39 406.87C1675.39 405.1 1676.83 403.72 1679.38 403.72ZM1679.43 408.17C1680.23 408.17 1681.01 407.5 1681.16 407.2L1681.16 405.82C1681.16 405.82 1680.48 405.52 1679.76 405.52C1678.78 405.52 1678.13 406.07 1678.13 406.87C1678.13 407.62 1678.66 408.17 1679.43 408.17ZM1686.79 400.53C1686.79 400.25 1687.01 400.05 1687.26 400.05L1688.21 400.05C1688.43 400.05 1688.56 400.18 1688.63 400.35L1688.98 401.28C1689.36 400.88 1690.58 399.8 1692.51 399.8C1695.68 399.8 1696.95 402.17 1696.95 404.77L1696.95 409.57C1696.95 409.82 1696.73 410.05 1696.48 410.05L1694.43 410.05C1694.16 410.05 1693.96 409.82 1693.96 409.57L1693.96 404.62C1693.96 403.32 1693.28 402.5 1692.08 402.5C1690.78 402.5 1689.98 403.4 1689.73 404.07L1689.73 409.57C1689.73 409.92 1689.58 410.05 1689.11 410.05L1687.26 410.05C1687.01 410.05 1686.79 409.82 1686.79 409.57L1686.79 400.53ZM1704.31 399.8C1705.86 399.8 1707.06 400.43 1708.01 401.58C1708.18 401.8 1708.13 402.1 1707.88 402.28L1706.73 403.38C1706.51 403.57 1706.28 403.45 1706.11 403.3C1705.71 402.85 1705.08 402.5 1704.38 402.5C1703.03 402.5 1701.93 403.65 1701.93 405.05C1701.93 406.47 1703.01 407.6 1704.36 407.6C1705.43 407.6 1705.91 407.08 1706.36 406.65C1706.53 406.47 1706.78 406.42 1706.98 406.57L1708.06 407.5C1708.31 407.7 1708.41 407.95 1708.23 408.2C1707.38 409.52 1706.06 410.3 1704.28 410.3C1701.46 410.3 1698.99 408.05 1698.99 405.05C1698.99 402.1 1701.51 399.8 1704.31 399.8ZM1714.76 399.8C1717.33 399.8 1719.43 401.75 1719.43 404.45L1719.38 405.12C1719.35 405.37 1719.13 405.55 1718.9 405.55L1712.51 405.55C1712.58 406.57 1713.46 407.72 1714.91 407.72C1715.68 407.72 1716.4 407.42 1716.85 407.1C1717.1 406.95 1717.33 406.9 1717.51 407.1L1718.53 408.27C1718.7 408.45 1718.75 408.72 1718.5 408.92C1717.68 409.7 1716.4 410.3 1714.78 410.3C1711.78 410.3 1709.66 407.92 1709.66 405.05C1709.66 402.23 1711.78 399.8 1714.76 399.8ZM1716.51 403.8C1716.43 402.87 1715.63 402.1 1714.68 402.1C1713.68 402.1 1712.86 402.85 1712.73 403.8L1716.51 403.8Z" />
		<path id="Path 11" class="shp1" d="M1624.51 181.04C1622.88 181.04 1621.56 179.72 1621.56 178.09L1621.56 124.71L181.32 124.71L181.32 172.77C181.32 174.41 180 175.73 178.37 175.73C176.74 175.73 175.41 174.41 175.41 172.77L175.41 118.8L1627.47 118.8L1627.47 178.09C1627.47 179.72 1626.15 181.04 1624.51 181.04ZM533.35 173.6C531.72 173.6 530.4 172.28 530.4 170.65L530.4 121.76C530.4 120.12 531.72 118.8 533.35 118.8C534.98 118.8 536.3 120.12 536.3 121.76L536.3 170.65C536.3 172.28 534.98 173.6 533.35 173.6ZM930.64 173.6C929.01 173.6 927.69 172.28 927.69 170.65L927.69 121.76C927.69 120.12 929.01 118.8 930.64 118.8C932.28 118.8 933.6 120.12 933.6 121.76L933.6 170.65C933.6 172.28 932.28 173.6 930.64 173.6ZM1271.24 173.6C1269.61 173.6 1268.29 172.28 1268.29 170.65L1268.29 121.76C1268.29 120.12 1269.61 118.8 1271.24 118.8C1272.87 118.8 1274.2 120.12 1274.2 121.76L1274.2 170.65C1274.2 172.28 1272.87 173.6 1271.24 173.6Z" />
	</g>
</svg>