<?xml version="1.0" encoding="utf-8"?>
<!-- Generator: Adobe Illustrator 24.0.3, SVG Export Plug-In . SVG Version: 6.00 Build 0)  -->
<svg version="1.1" id="Layer_1" xmlns="http://www.w3.org/2000/svg" xmlns:xlink="http://www.w3.org/1999/xlink" x="0px" y="0px"
	 viewBox="0 0 476.7 175.4" style="enable-background:new 0 0 476.7 175.4;" xml:space="preserve">
<style type="text/css">
	.st0{fill:#FFFFFF;}
	.st1{fill:#DD363E;}
</style>
<path class="st0" d="M89.6,102c-4,0-12.3-0.1-12.3-0.1s-0.4-0.6-0.5-0.8c-3.2-5.2-6.4-10.5-9.5-15.7C67,85,66.7,84.5,66.4,84
	c-2,3.1-3.9,6-5.9,9c-1.8,2.8-5.9,9-5.9,9s-5.7,0-8.6,0c1.7-2.6,3.3-5.1,4.9-7.5c3.6-5.5,11.3-17.4,11.3-17.4s-10-16.4-14.7-24.3
	c-0.2-0.4-0.4-0.7-0.7-1.3c3.5,0,12.4,0,12.4,0l10.1,16.9l11.1-16.9c0,0,5.9,0,8.6,0c-1.8,2.8-3.5,5.4-5.2,8
	c-3.3,5-10.4,15.9-10.4,15.9S84,92.6,88.9,100.8C89.1,101.2,89.3,101.5,89.6,102z"/>
<path class="st0" d="M261.6,93.3c2.8,0.9,5.5,2,8.2,2.6c3.3,0.8,6.6,1.1,9.9,0.2c2.5-0.7,4.2-2.3,4.8-4.9c0.5-2.7-0.3-5.1-2.6-6.6
	c-3-2-6.3-3.7-9.3-5.6c-2.3-1.5-4.6-3-6.7-4.8c-7.4-6.4-5.4-19.2,5.3-22.7c3.6-1.2,7.3-1.2,10.9-0.9c3.1,0.3,6.2,0.9,9.3,1.4
	c0.2,0,0.5,0.1,0.7,0.2c0,2.7,0,5.3,0,8c-2.5-0.7-4.9-1.5-7.4-2.1c-2.8-0.7-5.7-1-8.5-0.2c-2.1,0.6-3.6,1.9-4.1,4.1
	c-0.5,2.3,0.5,4.2,2.4,5.5c2.6,1.7,5.3,3.2,8,4.8c2.8,1.7,5.6,3.4,8.2,5.4c6.4,4.7,6.8,14.8,1.3,20.6c-3,3.1-6.7,4.4-10.8,4.9
	c-6.3,0.8-12.6,0-18.8-1.2c-0.3-0.1-0.8-0.2-0.8-0.2C261.5,99.1,261.6,95.9,261.6,93.3z"/>
<path class="st0" d="M143.8,102c-3.5,0-6.7,0-10.1,0c0-12.4,0-24.8,0-37.3c3.3,0,6.6,0,10,0c0,2.1,0,4.2,0,6.7
	c0.7-0.9,1.2-1.5,1.6-2.1c3.8-4.5,8.5-6.5,14.3-5.1c4.8,1.2,7.4,4.6,7.6,10.2c0.2,9.1,0.1,18.1,0.1,27.2c0,0.2-0.1,0.3-0.1,0.5
	c-3.3,0-6.6,0-10,0c0-0.5,0-0.9,0-1.4c0-7.3,0-14.5,0-21.8c0-0.9,0-1.8,0-2.6c-0.3-3.6-2.6-5.2-6.1-4.2c-3.4,1-5.4,3.6-7.2,6.4
	c-0.2,0.3-0.1,0.8-0.1,1.2c0,7,0,14.1,0,21.1C143.8,101,143.8,101.5,143.8,102z"/>
<path class="st0" d="M337.8,64.9c0,12.5,0,24.8,0,37.3c-3.3,0-6.7,0-10.2,0c0-2.1,0-4.2,0-6.3c-1.6,1.6-3,3.3-4.7,4.6
	c-4.7,3.5-11.1,3.5-15.3,0.1c-2.5-2-3.4-4.8-3.5-7.8c-0.1-9.3,0-18.5,0-27.9c3.4,0,6.7,0,10.1,0c0,0.4,0,0.7,0,1
	c0,7.5,0,15.1,0,22.6c0,0.9,0.1,1.8,0.1,2.6c0.2,2.8,2.6,4.5,5.5,3.8c2.7-0.6,4.5-2.3,6.3-4.4c1.2-1.4,1.7-2.9,1.7-4.8
	c-0.1-6.5,0-13,0-19.5c0-0.5,0-0.9,0-1.5C331.1,64.9,334.4,64.9,337.8,64.9z"/>
<path class="st0" d="M383.7,64.8c2.8,0,5.4,0,8,0c0,2.2,0,4.2,0,6.4c-2.6,0-5.2,0-8,0c0,0.5,0,0.9,0,1.4c0,5.5,0,11,0,16.5
	c0,1.1,0.1,2.3,0.3,3.4c0.5,2.5,2,3.8,4.6,3.8c1.2,0,2.5-0.1,3.8-0.2c0,1.8,0,3.6,0,5.4c0,0.2-0.3,0.6-0.5,0.7
	c-4.8,1.3-9.5,1.5-13.9-1c-2.7-1.6-4.1-4.1-4.3-7.2c-0.2-3.5-0.2-6.9-0.2-10.4c0-4,0-7.9,0-11.9c0-0.2,0-0.3-0.1-0.6
	c-1.3,0-2.6,0-4,0c0-2.1,0-4.2,0-6.3c1.3,0,2.6,0,4,0c0-2.2,0-4.2,0-6.4c3.4-0.4,6.7-0.8,10.2-1.2C383.7,59.8,383.7,62.2,383.7,64.8
	z"/>
<path class="st0" d="M189.7,102c-3.4,0-6.7,0-10.1,0c0-12.4,0-24.8,0-37.3c3.4,0,6.7,0,10.1,0C189.7,77.1,189.7,89.5,189.7,102z"/>
<path class="st0" d="M360.6,102.2c-3.4,0-6.8,0-10.2,0c0-12.4,0-24.8,0-37.4c2.3,0,10.3,0,10.3,0S360.6,101.7,360.6,102.2z"/>
<path class="st1" d="M350.4,49.7c3.4,0,6.7,0,10.1,0c0,2.9,0,5.8,0,8.7c-3.4,0-6.7,0-10.1,0C350.4,55.4,350.4,52.6,350.4,49.7z"/>
<path class="st1" d="M179.6,49.6c3.1,0,6.2,0,9.3,0c0.2,0,0.5,0,0.8,0.1c0,2.9,0,5.7,0,8.7c-3.3,0-6.7,0-10.1,0
	C179.6,55.5,179.6,52.6,179.6,49.6z"/>
<path class="st0" d="M233.6,96.3c-1.8,0-2.7-0.7-2.9-2.5c-0.1-0.7-0.1-1.4-0.1-2.1c0-5.5,0-11,0-16.5c0-5.5-2.2-8.8-7.3-10.4
	c-7-2.2-13.9-1.1-20.6,1.3c-0.2,0.1-0.5,0.2-0.5,0.2c0,2.1,0.1,4.7,0.1,6.9c0.6-0.3,1-0.5,1.4-0.7c3.5-1.7,7.2-2.8,11.2-2.6
	c2.3,0.1,4.6,0.5,5.6,3c0.8,1.9,0.4,4,0.4,5.9c-3,0.2-5.9,0.3-8.8,0.6c-3.5,0.4-6.7,1.5-9.4,4c-6.1,5.6-4.4,16.1,3.1,18.6
	c4.8,1.6,9.3,0.7,13.3-2.5c0.7-0.5,1.3-1.1,2.1-1.8c0.2,0.4,0.4,0.7,0.5,1c0.9,2,2.4,3.2,4.5,3.7c3,0.6,5.9,0.3,8.6-0.6
	c0-1.9,0-3.8,0-5.7C234.2,96.3,233.9,96.3,233.6,96.3z M220.7,92.1c0,0.2,0,0.4-0.2,0.5c-2.3,2-4.7,3.7-7.9,3.2
	c-1.9-0.3-3.3-1.4-3.9-3.3c-0.6-2-0.1-3.7,1.4-5.1c1.6-1.6,3.8-2.2,6-2.4c1.5-0.1,2.9,0,4.6,0C220.7,87.5,220.7,89.8,220.7,92.1z"/>
<path class="st0" d="M112.4,96c-2.9,0.1-5.7-0.2-8.1-1.9c-2.9-2.1-4.1-5.1-4.3-8.7c7.7,0,15.3,0,23,0c-0.2-4.4-0.3-8.6-1.8-12.7
	c-1.4-3.9-4.2-6.5-8-8c-2.5-0.9-5.1-1.1-7.8-0.9c-5,0.3-9.3,2.3-12.3,6.5c-4.6,6.4-5,13.5-2.5,20.8c2,6,6.2,9.7,12.4,11.1
	c6.6,1.5,13,0.5,19.4-1.2c0.2-0.1,0.6-0.4,0.6-0.6c0-2.2,0-4.4,0-6.7C119.5,94.9,116,95.8,112.4,96z M102.9,71.7
	c3-2.9,7.5-1.8,9.2,2c0.8,1.9,1,3.8,0.9,5.9c-4.4,0-8.7,0-13.2,0C100.1,76.5,100.7,73.7,102.9,71.7z"/>
<path class="st0" d="M413,94.2c-2.8-2.1-3.9-5-4.2-8.6c7.7,0,15.3,0,23,0c0-4.5-0.3-8.9-1.9-13.1c-1.3-3.5-3.8-5.9-7.3-7.3
	c-2.7-1.2-5.6-1.3-8.5-1.1c-5.2,0.4-9.6,2.5-12.5,6.9c-4.1,6.2-4.6,12.9-2.4,19.9c2,6.2,6.2,10.1,12.5,11.6
	c3.5,0.9,7.1,0.9,10.7,0.5c3.1-0.4,6.2-1.1,9.2-1.6c0-2.6,0-4.9,0-7.3c-3.5,1.3-6.9,2.2-10.6,2.3C418.3,96.3,415.5,96,413,94.2z
	 M411,72.7c1.4-1.9,3.4-2.7,5.8-2.3c2.2,0.4,3.7,1.8,4.3,3.9c0.5,1.7,0.7,3.6,1,5.5c-4.7,0-9,0-13.4,0
	C408.9,77.1,409.5,74.8,411,72.7z"/>
<g>
	<path class="st0" d="M44.2,123l0.5-0.9c0.1-0.2,0.4-0.2,0.5-0.1c0.1,0,1.2,0.9,2.1,0.9c0.7,0,1.3-0.5,1.3-1.1
		c0-0.8-0.6-1.3-1.8-1.8c-1.3-0.6-2.6-1.5-2.6-3.2c0-1.3,0.9-2.8,3.2-2.8c1.4,0,2.5,0.8,2.8,1c0.1,0.1,0.2,0.3,0.1,0.5l-0.5,0.8
		c-0.1,0.2-0.3,0.3-0.5,0.2c-0.1-0.1-1.2-0.8-2-0.8c-0.8,0-1.2,0.6-1.2,1c0,0.7,0.5,1.2,1.7,1.7c1.4,0.6,2.9,1.4,2.9,3.3
		c0,1.5-1.3,2.9-3.2,2.9c-1.8,0-2.8-0.9-3.1-1.2C44.2,123.3,44.1,123.3,44.2,123z"/>
	<path class="st0" d="M52.1,114.4c0-0.1,0.1-0.3,0.3-0.3h1.3c0.2,0,0.3,0.1,0.3,0.3v6.1c0,1.3,0.8,2.2,2,2.2s2.1-1,2.1-2.2v-6.1
		c0-0.1,0.1-0.3,0.3-0.3h1.3c0.1,0,0.3,0.1,0.3,0.3v6.2c0,2.2-1.7,4.1-3.9,4.1c-2.2,0-3.9-1.8-3.9-4.1V114.4z"/>
	<path class="st0" d="M62.1,114.4c0-0.1,0.1-0.3,0.3-0.3h3.3c1.7,0,3.1,1.5,3.1,3.3c0,1.8-1.4,3.3-3.1,3.3H64v3.5
		c0,0.1-0.1,0.3-0.3,0.3h-1.3c-0.2,0-0.3-0.1-0.3-0.3V114.4z M65.6,118.9c0.8,0,1.4-0.7,1.4-1.5c0-0.8-0.7-1.4-1.4-1.4H64v3H65.6z"
		/>
	<path class="st0" d="M70.2,114.4c0-0.1,0.1-0.3,0.3-0.3h5.7c0.2,0,0.3,0.1,0.3,0.3v1.2c0,0.1-0.1,0.3-0.3,0.3h-4.2v2.4h3.5
		c0.1,0,0.3,0.1,0.3,0.3v1.2c0,0.2-0.1,0.3-0.3,0.3h-3.5v2.6h4.2c0.2,0,0.3,0.1,0.3,0.3v1.2c0,0.1-0.1,0.3-0.3,0.3h-5.7
		c-0.2,0-0.3-0.1-0.3-0.3V114.4z"/>
	<path class="st0" d="M78.3,114.4c0-0.1,0.1-0.3,0.3-0.3h4c1.7,0,3.1,1.4,3.1,3.2c0,1.4-0.9,2.5-2.1,3l1.9,3.8
		c0.1,0.2,0,0.4-0.2,0.4h-1.5c-0.1,0-0.2-0.1-0.2-0.1l-1.9-3.9h-1.6v3.8c0,0.1-0.1,0.3-0.3,0.3h-1.3c-0.2,0-0.3-0.1-0.3-0.3V114.4z
		 M82.4,118.8c0.7,0,1.4-0.7,1.4-1.5c0-0.8-0.6-1.4-1.4-1.4h-2.3v2.9H82.4z"/>
	<path class="st0" d="M87.5,114.4c0-0.1,0.1-0.3,0.3-0.3H89c0.1,0,0.3,0.1,0.3,0.3v9.8c0,0.1-0.1,0.3-0.3,0.3h-1.3
		c-0.1,0-0.3-0.1-0.3-0.3V114.4z"/>
	<path class="st0" d="M96,114c2.8,0,5.1,2.4,5.1,5.3c0,3-2.2,5.3-5.1,5.3s-5-2.4-5-5.3C90.9,116.3,93.2,114,96,114z M96,122.7
		c1.8,0,3.2-1.5,3.2-3.4c0-1.9-1.5-3.4-3.2-3.4s-3.2,1.6-3.2,3.4C92.8,121.2,94.2,122.7,96,122.7z"/>
	<path class="st0" d="M102.7,114.4c0-0.1,0.1-0.3,0.3-0.3h4c1.7,0,3.1,1.4,3.1,3.2c0,1.4-0.9,2.5-2.1,3l1.9,3.8
		c0.1,0.2,0,0.4-0.2,0.4h-1.5c-0.1,0-0.2-0.1-0.2-0.1l-1.9-3.9h-1.6v3.8c0,0.1-0.1,0.3-0.3,0.3h-1.3c-0.2,0-0.3-0.1-0.3-0.3V114.4z
		 M106.8,118.8c0.7,0,1.4-0.7,1.4-1.5c0-0.8-0.6-1.4-1.4-1.4h-2.3v2.9H106.8z"/>
	<path class="st0" d="M114.7,114.4c0-0.1,0.1-0.3,0.3-0.3h1.3c0.2,0,0.3,0.1,0.3,0.3v3.9h4.6v-3.9c0-0.1,0.1-0.3,0.3-0.3h1.3
		c0.1,0,0.3,0.1,0.3,0.3v9.8c0,0.1-0.1,0.3-0.3,0.3h-1.3c-0.2,0-0.3-0.1-0.3-0.3v-4.1h-4.6v4.1c0,0.1-0.1,0.3-0.3,0.3H115
		c-0.1,0-0.3-0.1-0.3-0.3V114.4z"/>
	<path class="st0" d="M129.7,114c2.8,0,5.1,2.4,5.1,5.3c0,3-2.2,5.3-5.1,5.3s-5-2.4-5-5.3C124.6,116.3,126.9,114,129.7,114z
		 M129.7,122.7c1.8,0,3.2-1.5,3.2-3.4c0-1.9-1.5-3.4-3.2-3.4s-3.2,1.6-3.2,3.4C126.5,121.2,127.9,122.7,129.7,122.7z"/>
	<path class="st0" d="M137.6,115.9h-2.1c-0.2,0-0.3-0.1-0.3-0.3v-1.2c0-0.1,0.1-0.3,0.3-0.3h6.1c0.2,0,0.3,0.1,0.3,0.3v1.2
		c0,0.1-0.1,0.3-0.3,0.3h-2.2v8.3c0,0.1-0.1,0.3-0.3,0.3h-1.3c-0.1,0-0.3-0.1-0.3-0.3V115.9z"/>
	<path class="st0" d="M143.1,114.4c0-0.1,0.1-0.3,0.3-0.3h5.7c0.2,0,0.3,0.1,0.3,0.3v1.2c0,0.1-0.1,0.3-0.3,0.3h-4.2v2.4h3.5
		c0.1,0,0.3,0.1,0.3,0.3v1.2c0,0.2-0.1,0.3-0.3,0.3h-3.5v2.6h4.2c0.2,0,0.3,0.1,0.3,0.3v1.2c0,0.1-0.1,0.3-0.3,0.3h-5.7
		c-0.2,0-0.3-0.1-0.3-0.3V114.4z"/>
	<path class="st0" d="M151.2,114.4c0-0.1,0.1-0.3,0.3-0.3h1.3c0.1,0,0.3,0.1,0.3,0.3v8.3h3.6c0.2,0,0.3,0.1,0.3,0.3v1.2
		c0,0.1-0.1,0.3-0.3,0.3h-5.1c-0.2,0-0.3-0.1-0.3-0.3V114.4z"/>
	<path class="st0" d="M162,114.2c0-0.1,0.1-0.2,0.3-0.2h0.2c0.1,0,0.2,0.1,0.2,0.1l3.1,7c0,0,0,0,0,0l3.1-7c0-0.1,0.1-0.1,0.2-0.1
		h0.2c0.2,0,0.2,0.1,0.3,0.2l1.7,9.9c0,0.2-0.1,0.3-0.3,0.3h-1.3c-0.1,0-0.2-0.1-0.3-0.2l-0.8-5.6c0,0,0,0,0,0l-2.5,5.8
		c0,0.1-0.1,0.2-0.2,0.2h-0.3c-0.1,0-0.2-0.1-0.2-0.2l-2.5-5.8c0,0,0,0,0,0l-0.8,5.6c0,0.1-0.1,0.2-0.3,0.2h-1.3
		c-0.2,0-0.3-0.1-0.3-0.3L162,114.2z"/>
	<path class="st0" d="M171.7,124.1l4.4-10c0-0.1,0.1-0.2,0.2-0.2h0.1c0.1,0,0.2,0.1,0.2,0.2l4.3,10c0.1,0.2,0,0.4-0.2,0.4h-1.2
		c-0.2,0-0.3-0.1-0.4-0.3l-0.7-1.6h-4.2l-0.7,1.6c-0.1,0.1-0.2,0.3-0.4,0.3H172C171.8,124.5,171.6,124.3,171.7,124.1z M177.8,120.9
		l-1.4-3.3h0l-1.4,3.3H177.8z"/>
	<path class="st0" d="M182.1,114.2c0-0.1,0.1-0.3,0.3-0.3h0.4l5.8,6.5h0v-6.1c0-0.1,0.1-0.3,0.3-0.3h1.3c0.1,0,0.3,0.1,0.3,0.3v10
		c0,0.1-0.1,0.3-0.3,0.3h-0.3l-5.9-6.8h0v6.4c0,0.1-0.1,0.3-0.3,0.3h-1.3c-0.1,0-0.3-0.1-0.3-0.3V114.2z"/>
	<path class="st0" d="M191.5,124.1l4.4-10c0-0.1,0.1-0.2,0.2-0.2h0.1c0.1,0,0.2,0.1,0.2,0.2l4.3,10c0.1,0.2,0,0.4-0.2,0.4h-1.2
		c-0.2,0-0.3-0.1-0.4-0.3l-0.7-1.6h-4.2l-0.7,1.6c-0.1,0.1-0.2,0.3-0.4,0.3h-1.2C191.5,124.5,191.4,124.3,191.5,124.1z M197.6,120.9
		l-1.4-3.3h0l-1.4,3.3H197.6z"/>
	<path class="st0" d="M206.2,114c1.3,0,2.5,0.5,3.4,1.4c0.1,0.1,0.1,0.3,0,0.4l-0.9,1c-0.1,0.1-0.2,0.1-0.4,0
		c-0.6-0.6-1.3-0.9-2.1-0.9c-1.8,0-3.1,1.6-3.1,3.4c0,1.8,1.4,3.4,3.2,3.4c0.8,0,1.4-0.3,1.7-0.4V121h-1.1c-0.2,0-0.3-0.1-0.3-0.3
		v-1.2c0-0.2,0.1-0.3,0.3-0.3h2.7c0.1,0,0.3,0.1,0.3,0.3v3.8c0,0.1-0.1,0.2-0.1,0.2c0,0-1.4,1-3.5,1c-2.8,0-5-2.3-5-5.3
		C201.1,116.3,203.4,114,206.2,114z"/>
	<path class="st0" d="M211.6,114.4c0-0.1,0.1-0.3,0.3-0.3h5.7c0.2,0,0.3,0.1,0.3,0.3v1.2c0,0.1-0.1,0.3-0.3,0.3h-4.2v2.4h3.5
		c0.1,0,0.3,0.1,0.3,0.3v1.2c0,0.2-0.1,0.3-0.3,0.3h-3.5v2.6h4.2c0.2,0,0.3,0.1,0.3,0.3v1.2c0,0.1-0.1,0.3-0.3,0.3h-5.7
		c-0.2,0-0.3-0.1-0.3-0.3V114.4z"/>
	<path class="st0" d="M220.7,114.2c0-0.1,0.1-0.2,0.3-0.2h0.2c0.1,0,0.2,0.1,0.2,0.1l3.1,7c0,0,0,0,0,0l3.1-7c0-0.1,0.1-0.1,0.2-0.1
		h0.2c0.2,0,0.2,0.1,0.3,0.2l1.7,9.9c0,0.2-0.1,0.3-0.3,0.3h-1.3c-0.1,0-0.2-0.1-0.3-0.2l-0.8-5.6c0,0,0,0,0,0l-2.5,5.8
		c0,0.1-0.1,0.2-0.2,0.2h-0.3c-0.1,0-0.2-0.1-0.2-0.2l-2.5-5.8c0,0,0,0,0,0l-0.8,5.6c0,0.1-0.1,0.2-0.3,0.2h-1.3
		c-0.2,0-0.3-0.1-0.3-0.3L220.7,114.2z"/>
	<path class="st0" d="M231.7,114.4c0-0.1,0.1-0.3,0.3-0.3h5.7c0.2,0,0.3,0.1,0.3,0.3v1.2c0,0.1-0.1,0.3-0.3,0.3h-4.2v2.4h3.5
		c0.1,0,0.3,0.1,0.3,0.3v1.2c0,0.2-0.1,0.3-0.3,0.3h-3.5v2.6h4.2c0.2,0,0.3,0.1,0.3,0.3v1.2c0,0.1-0.1,0.3-0.3,0.3H232
		c-0.2,0-0.3-0.1-0.3-0.3V114.4z"/>
	<path class="st0" d="M239.8,114.2c0-0.1,0.1-0.3,0.3-0.3h0.4l5.8,6.5h0v-6.1c0-0.1,0.1-0.3,0.3-0.3h1.3c0.1,0,0.3,0.1,0.3,0.3v10
		c0,0.1-0.1,0.3-0.3,0.3h-0.3l-5.9-6.8h0v6.4c0,0.1-0.1,0.3-0.3,0.3h-1.3c-0.1,0-0.3-0.1-0.3-0.3V114.2z"/>
	<path class="st0" d="M251.8,115.9h-2.1c-0.2,0-0.3-0.1-0.3-0.3v-1.2c0-0.1,0.1-0.3,0.3-0.3h6.1c0.2,0,0.3,0.1,0.3,0.3v1.2
		c0,0.1-0.1,0.3-0.3,0.3h-2.2v8.3c0,0.1-0.1,0.3-0.3,0.3H252c-0.1,0-0.3-0.1-0.3-0.3V115.9z"/>
	<path class="st0" d="M259.6,123l0.5-0.9c0.1-0.2,0.4-0.2,0.5-0.1c0.1,0,1.2,0.9,2.1,0.9c0.7,0,1.3-0.5,1.3-1.1
		c0-0.8-0.6-1.3-1.8-1.8c-1.3-0.6-2.6-1.5-2.6-3.2c0-1.3,0.9-2.8,3.2-2.8c1.4,0,2.5,0.8,2.8,1c0.1,0.1,0.2,0.3,0.1,0.5l-0.5,0.8
		c-0.1,0.2-0.3,0.3-0.5,0.2c-0.1-0.1-1.2-0.8-2-0.8c-0.8,0-1.2,0.6-1.2,1c0,0.7,0.5,1.2,1.7,1.7c1.4,0.6,2.9,1.4,2.9,3.3
		c0,1.5-1.3,2.9-3.2,2.9c-1.8,0-2.8-0.9-3.1-1.2C259.5,123.3,259.5,123.3,259.6,123z"/>
	<path class="st0" d="M271.9,114c2.8,0,5.1,2.4,5.1,5.3c0,3-2.2,5.3-5.1,5.3s-5-2.4-5-5.3C266.9,116.3,269.1,114,271.9,114z
		 M271.9,122.7c1.8,0,3.2-1.5,3.2-3.4c0-1.9-1.5-3.4-3.2-3.4s-3.2,1.6-3.2,3.4C268.7,121.2,270.2,122.7,271.9,122.7z"/>
	<path class="st0" d="M278.6,114.4c0-0.1,0.1-0.3,0.3-0.3h5.7c0.2,0,0.3,0.1,0.3,0.3v1.2c0,0.1-0.1,0.3-0.3,0.3h-4.2v2.8h3.5
		c0.1,0,0.3,0.1,0.3,0.3v1.2c0,0.1-0.1,0.3-0.3,0.3h-3.5v3.7c0,0.1-0.1,0.3-0.3,0.3h-1.3c-0.2,0-0.3-0.1-0.3-0.3V114.4z"/>
	<path class="st0" d="M287.7,115.9h-2.1c-0.2,0-0.3-0.1-0.3-0.3v-1.2c0-0.1,0.1-0.3,0.3-0.3h6.1c0.2,0,0.3,0.1,0.3,0.3v1.2
		c0,0.1-0.1,0.3-0.3,0.3h-2.2v8.3c0,0.1-0.1,0.3-0.3,0.3h-1.3c-0.1,0-0.3-0.1-0.3-0.3V115.9z"/>
	<path class="st0" d="M292.3,114.5c-0.1-0.2,0.1-0.4,0.3-0.4h1.3c0.1,0,0.2,0.1,0.3,0.2l1.5,5.9h0.1l2.2-6.1c0-0.1,0.1-0.2,0.2-0.2
		h0.3c0.1,0,0.2,0.1,0.2,0.2l2.2,6.1h0.1l1.4-5.9c0-0.1,0.1-0.2,0.3-0.2h1.3c0.2,0,0.3,0.1,0.3,0.4l-2.7,9.9c0,0.1-0.1,0.2-0.3,0.2
		H301c-0.1,0-0.2-0.1-0.2-0.2l-2.5-6.7h-0.1l-2.5,6.7c0,0.1-0.1,0.2-0.2,0.2h-0.2c-0.1,0-0.2-0.1-0.3-0.2L292.3,114.5z"/>
	<path class="st0" d="M303.9,124.1l4.4-10c0-0.1,0.1-0.2,0.2-0.2h0.1c0.1,0,0.2,0.1,0.2,0.2l4.3,10c0.1,0.2,0,0.4-0.2,0.4h-1.2
		c-0.2,0-0.3-0.1-0.4-0.3l-0.7-1.6h-4.2l-0.7,1.6c-0.1,0.1-0.2,0.3-0.4,0.3h-1.2C303.9,124.5,303.8,124.3,303.9,124.1z M310,120.9
		l-1.4-3.3h0l-1.4,3.3H310z"/>
	<path class="st0" d="M314.3,114.4c0-0.1,0.1-0.3,0.3-0.3h4c1.7,0,3.1,1.4,3.1,3.2c0,1.4-0.9,2.5-2.1,3l1.9,3.8
		c0.1,0.2,0,0.4-0.2,0.4h-1.5c-0.1,0-0.2-0.1-0.2-0.1l-1.9-3.9h-1.6v3.8c0,0.1-0.1,0.3-0.3,0.3h-1.3c-0.2,0-0.3-0.1-0.3-0.3V114.4z
		 M318.4,118.8c0.7,0,1.4-0.7,1.4-1.5c0-0.8-0.6-1.4-1.4-1.4h-2.3v2.9H318.4z"/>
	<path class="st0" d="M323.4,114.4c0-0.1,0.1-0.3,0.3-0.3h5.7c0.2,0,0.3,0.1,0.3,0.3v1.2c0,0.1-0.1,0.3-0.3,0.3h-4.2v2.4h3.5
		c0.1,0,0.3,0.1,0.3,0.3v1.2c0,0.2-0.1,0.3-0.3,0.3h-3.5v2.6h4.2c0.2,0,0.3,0.1,0.3,0.3v1.2c0,0.1-0.1,0.3-0.3,0.3h-5.7
		c-0.2,0-0.3-0.1-0.3-0.3V114.4z"/>
	<path class="st0" d="M334.1,111.7c0-0.2,0.1-0.3,0.3-0.3h0.1c0.1,0,0.3,0.1,0.3,0.3v15.1c0,0.1-0.1,0.3-0.3,0.3h-0.1
		c-0.1,0-0.3-0.1-0.3-0.3V111.7z"/>
	<path class="st0" d="M339.8,114.2c0-0.1,0.1-0.3,0.3-0.3h0.4l6.1,7.4h0v-7c0-0.1,0.1-0.3,0.3-0.3h0.9c0.1,0,0.3,0.1,0.3,0.3v10
		c0,0.1-0.1,0.3-0.3,0.3h-0.4l-6.1-7.6h0v7.2c0,0.1-0.1,0.3-0.3,0.3h-0.9c-0.1,0-0.3-0.1-0.3-0.3V114.2z"/>
	<path class="st0" d="M350.5,114.4c0-0.1,0.1-0.3,0.3-0.3h5.6c0.2,0,0.3,0.1,0.3,0.3v0.8c0,0.1-0.1,0.3-0.3,0.3h-4.4v3h3.8
		c0.1,0,0.3,0.1,0.3,0.3v0.8c0,0.2-0.1,0.3-0.3,0.3h-3.8v3.2h4.4c0.2,0,0.3,0.1,0.3,0.3v0.8c0,0.1-0.1,0.3-0.3,0.3h-5.6
		c-0.2,0-0.3-0.1-0.3-0.3V114.4z"/>
	<path class="st0" d="M357.7,114.5c-0.1-0.2,0.1-0.4,0.3-0.4h0.9c0.1,0,0.2,0.1,0.3,0.2l1.7,6.8h0.1l2.3-7c0-0.1,0.1-0.2,0.2-0.2
		h0.3c0.1,0,0.2,0.1,0.2,0.2l2.3,7h0.1l1.7-6.8c0-0.1,0.1-0.2,0.3-0.2h0.9c0.2,0,0.3,0.1,0.3,0.4l-2.7,9.9c0,0.1-0.1,0.2-0.3,0.2
		h-0.2c-0.1,0-0.2-0.1-0.2-0.2l-2.5-7.4h-0.1l-2.4,7.4c0,0.1-0.1,0.2-0.2,0.2h-0.2c-0.1,0-0.2-0.1-0.3-0.2L357.7,114.5z"/>
	<path class="st0" d="M372.9,123.9l4.6-8.3v-0.1h-4c-0.1,0-0.3-0.1-0.3-0.3v-0.9c0-0.1,0.1-0.3,0.3-0.3h5.8c0.1,0,0.3,0.1,0.3,0.3
		v0.2L375,123v0h4.1c0.2,0,0.3,0.1,0.3,0.3v0.8c0,0.1-0.1,0.3-0.3,0.3h-5.9c-0.1,0-0.3-0.1-0.3-0.3V123.9z"/>
	<path class="st0" d="M381.2,114.4c0-0.1,0.1-0.3,0.3-0.3h5.6c0.2,0,0.3,0.1,0.3,0.3v0.8c0,0.1-0.1,0.3-0.3,0.3h-4.4v3h3.8
		c0.1,0,0.3,0.1,0.3,0.3v0.8c0,0.2-0.1,0.3-0.3,0.3h-3.8v3.2h4.4c0.2,0,0.3,0.1,0.3,0.3v0.8c0,0.1-0.1,0.3-0.3,0.3h-5.6
		c-0.2,0-0.3-0.1-0.3-0.3V114.4z"/>
	<path class="st0" d="M387.9,124.1l4.3-10c0-0.1,0.2-0.2,0.2-0.2h0.1c0.1,0,0.2,0.1,0.2,0.2l4.3,10c0.1,0.2,0,0.4-0.2,0.4H396
		c-0.2,0-0.3-0.1-0.3-0.2l-0.9-2h-4.6c-0.3,0.7-0.6,1.3-0.9,2c0,0.1-0.2,0.2-0.3,0.2h-0.9C388,124.5,387.9,124.3,387.9,124.1z
		 M394.3,120.9l-1.7-4.1h-0.1l-1.7,4.1H394.3z"/>
	<path class="st0" d="M398.4,114.4c0-0.1,0.1-0.3,0.3-0.3h0.9c0.1,0,0.3,0.1,0.3,0.3v8.7h3.8c0.2,0,0.3,0.1,0.3,0.3v0.8
		c0,0.1-0.1,0.3-0.3,0.3h-5c-0.2,0-0.3-0.1-0.3-0.3V114.4z"/>
	<path class="st0" d="M404.3,124.1l4.3-10c0-0.1,0.2-0.2,0.2-0.2h0.1c0.1,0,0.2,0.1,0.2,0.2l4.3,10c0.1,0.2,0,0.4-0.2,0.4h-0.9
		c-0.2,0-0.3-0.1-0.3-0.2l-0.9-2h-4.6c-0.3,0.7-0.6,1.3-0.9,2c0,0.1-0.2,0.2-0.3,0.2h-0.9C404.3,124.5,404.2,124.3,404.3,124.1z
		 M410.6,120.9l-1.7-4.1h-0.1l-1.7,4.1H410.6z"/>
	<path class="st0" d="M414.7,114.2c0-0.1,0.1-0.3,0.3-0.3h0.4l6.1,7.4h0v-7c0-0.1,0.1-0.3,0.3-0.3h0.9c0.1,0,0.3,0.1,0.3,0.3v10
		c0,0.1-0.1,0.3-0.3,0.3h-0.4l-6.1-7.6h0v7.2c0,0.1-0.1,0.3-0.3,0.3H415c-0.1,0-0.3-0.1-0.3-0.3V114.2z"/>
	<path class="st0" d="M425.4,114.4c0-0.1,0.1-0.3,0.3-0.3h3.2c2.7,0,4.9,2.3,4.9,5.2c0,2.9-2.2,5.2-4.9,5.2h-3.2
		c-0.1,0-0.3-0.1-0.3-0.3V114.4z M428.7,123.1c2.1,0,3.6-1.6,3.6-3.8c0-2.2-1.5-3.8-3.6-3.8h-1.9v7.5H428.7z"/>
</g>
</svg>
